<svg width="13" height="16" viewBox="0 0 13 16" fill="none" xmlns="http://www.w3.org/2000/svg">
<path d="M10.8572 8.50897C10.8652 7.89589 11.028 7.29481 11.3303 6.76164C11.6327 6.22846 12.0648 5.78053 12.5865 5.45949C12.2549 4.98549 11.8176 4.5954 11.3092 4.32016C10.8008 4.04493 10.2354 3.89214 9.65773 3.87391C8.42548 3.74432 7.2309 4.61195 6.60323 4.61195C5.96341 4.61195 4.99669 3.88608 3.95523 3.90738C3.28202 3.9292 2.62594 4.12529 2.05091 4.47652C1.47589 4.82776 1.00154 5.32216 0.674089 5.91156C-0.745308 8.37207 0.313163 11.9874 1.67301 13.9764C2.35294 14.9499 3.14831 16.0377 4.18855 15.9994C5.20632 15.9574 5.58608 15.3496 6.81468 15.3496C8.02992 15.3496 8.38841 15.9994 9.44992 15.9751C10.5436 15.9574 11.2302 14.9967 11.8865 14.0141C12.3753 13.3202 12.7514 12.5532 13.0008 11.7416C12.3661 11.473 11.8243 11.0233 11.4431 10.4484C11.0618 9.87354 10.8581 9.19902 10.8572 8.50897Z" fill="white"/>
<path d="M8.85329 2.56455C9.44891 1.8489 9.74232 0.928865 9.67115 0C8.76173 0.0951975 7.9214 0.529612 7.31723 1.21687C7.02222 1.55315 6.79627 1.94434 6.65229 2.36809C6.50831 2.79184 6.44912 3.23984 6.47811 3.6865C6.93298 3.69156 7.38306 3.59322 7.79448 3.39888C8.20589 3.20455 8.56792 2.91928 8.85329 2.56455Z" fill="white"/>
</svg>
