<svg width="17" height="19" viewBox="0 0 17 19" fill="none" xmlns="http://www.w3.org/2000/svg">
<path d="M0.311521 0.330688C0.111133 0.648827 0.00577486 1.01758 0.00784235 1.39356V17.6221C0.00577486 17.9981 0.111133 18.3669 0.311521 18.685L0.38744 18.7609L9.45224 9.69613V9.54429L0.311521 0.330688Z" fill="url(#paint0_linear_245_2434)"/>
<path d="M12.5003 12.5957L9.45361 9.54825V9.39641L12.5003 6.349L12.5762 6.42492L16.1566 8.48158C17.1435 9.08894 17.1435 10.0053 16.1566 10.6142L12.5003 12.5957Z" fill="url(#paint1_linear_245_2434)"/>
<path d="M12.5763 12.5955L9.45298 9.47217L0.312256 18.6129C0.615934 18.9925 1.22329 18.9925 1.83596 18.6888L12.5771 12.5947" fill="url(#paint2_linear_245_2434)"/>
<path d="M12.5763 6.3488L1.83596 0.253975C1.61006 0.0944474 1.33721 0.0152367 1.06101 0.0289988C0.784802 0.042761 0.521178 0.148702 0.312256 0.329895L9.45298 9.47062L12.5763 6.3488Z" fill="url(#paint3_linear_245_2434)"/>
<path opacity="0.2" d="M12.5004 12.5188L1.83594 18.5369C1.22858 18.8406 0.693345 18.8406 0.388907 18.5369L0.312988 18.6129L0.388907 18.6888C0.692586 18.9925 1.22402 18.9925 1.83594 18.6888L12.5004 12.5188Z" fill="#3C3C3B"/>
<path opacity="0.12" d="M0.311401 18.5332C0.0775935 18.231 -0.0311263 17.8505 0.00772256 17.4703V17.5463C0.00565506 17.9222 0.111013 18.291 0.311401 18.6091V18.5332Z" fill="#3C3C3B"/>
<path opacity="0.12" d="M16.1565 10.4591L12.5002 12.5188L12.5762 12.5947L16.1565 10.535C16.3677 10.4436 16.55 10.2963 16.6837 10.109C16.8175 9.92177 16.8977 9.7016 16.9157 9.47217C16.9188 9.85177 16.6136 10.1554 16.1565 10.4591Z" fill="#3C3C3B"/>
<path opacity="0.25" d="M1.83596 0.405831L16.1574 8.55808C16.3504 8.63387 16.5211 8.75709 16.6538 8.91633C16.7865 9.07556 16.8769 9.26569 16.9166 9.46912C16.8986 9.23969 16.8184 9.01951 16.6846 8.83224C16.5509 8.64497 16.3686 8.4977 16.1574 8.40624L1.83596 0.253992C0.842928 -0.353365 0.0078125 0.178072 0.0078125 1.32142V1.47326C0.0078125 0.329911 0.842928 -0.201526 1.83596 0.405831Z" fill="white"/>
<defs>
<linearGradient id="paint0_linear_245_2434" x1="8.68724" y1="18.5398" x2="-5.85783" y2="14.7216" gradientUnits="userSpaceOnUse">
<stop stop-color="#00A0FF"/>
<stop offset="0.007" stop-color="#00A1FF"/>
<stop offset="0.26" stop-color="#00BEFF"/>
<stop offset="0.512" stop-color="#00D2FF"/>
<stop offset="0.76" stop-color="#00DFFF"/>
<stop offset="1" stop-color="#00E3FF"/>
</linearGradient>
<linearGradient id="paint1_linear_245_2434" x1="17.5071" y1="10.2532" x2="-0.229938" y2="10.2532" gradientUnits="userSpaceOnUse">
<stop stop-color="#FFE000"/>
<stop offset="0.409" stop-color="#FFBD00"/>
<stop offset="0.775" stop-color="#FFA500"/>
<stop offset="1" stop-color="#FF9C00"/>
</linearGradient>
<linearGradient id="paint2_linear_245_2434" x1="10.9091" y1="8.56634" x2="-0.738198" y2="-11.1116" gradientUnits="userSpaceOnUse">
<stop stop-color="#FF3A44"/>
<stop offset="1" stop-color="#C31162"/>
</linearGradient>
<linearGradient id="paint3_linear_245_2434" x1="-1.95659" y1="24.8063" x2="3.25322" y2="16.0148" gradientUnits="userSpaceOnUse">
<stop stop-color="#32A071"/>
<stop offset="0.068" stop-color="#2DA771"/>
<stop offset="0.476" stop-color="#15CF74"/>
<stop offset="0.801" stop-color="#06E775"/>
<stop offset="1" stop-color="#00F076"/>
</linearGradient>
</defs>
</svg>
