<svg width="22" height="22" viewBox="0 0 22 22" fill="none" xmlns="http://www.w3.org/2000/svg">
<path d="M5.06448 2.53375C5.06418 3.03452 4.91541 3.52395 4.63698 3.94018C4.35856 4.35641 3.96297 4.68074 3.50024 4.87216C3.03751 5.06359 2.52842 5.11352 2.03731 5.01564C1.5462 4.91776 1.09513 4.67647 0.74114 4.32227C0.387151 3.96807 0.14613 3.51687 0.0485456 3.0257C-0.0490391 2.53454 0.0012015 2.02547 0.192905 1.56285C0.384609 1.10023 0.709177 0.704834 1.12557 0.426655C1.54196 0.148475 2.03147 8.92432e-08 2.53223 0C2.8649 -5.92855e-08 3.19432 0.065549 3.50165 0.192901C3.80897 0.320252 4.08819 0.506913 4.32335 0.742214C4.55851 0.977514 4.745 1.25684 4.87216 1.56424C4.99933 1.87164 5.06468 2.20109 5.06448 2.53375Z" fill="black"/>
<path d="M4.70182 6.97754H0.325195V21.013H4.70182V6.97754Z" fill="black"/>
<path d="M7.44531 21.0115H11.8038V13.77C11.8038 13.77 11.639 10.4955 14.2605 10.4955C16.8819 10.4955 16.6944 12.9718 16.6944 13.7897V21.0115H21.0983V13.4027C21.0983 13.4027 21.3643 7.87708 18.1321 6.97756C14.8999 6.07805 12.7713 7.12118 11.6451 8.96254V6.97756H7.45138L7.44531 21.0115Z" fill="black"/>
</svg>
