<svg width="19" height="19" viewBox="0 0 19 19" fill="none" xmlns="http://www.w3.org/2000/svg">
<path d="M4.52449 2.39152C4.52422 2.83889 4.39131 3.27615 4.14257 3.64799C3.89383 4.01984 3.54042 4.30959 3.12703 4.4806C2.71363 4.65162 2.25883 4.69622 1.82008 4.60878C1.38134 4.52134 0.978362 4.30578 0.662117 3.98934C0.345871 3.67291 0.130549 3.26981 0.0433694 2.83102C-0.0438104 2.39222 0.00107339 1.93743 0.172337 1.52414C0.3436 1.11085 0.633561 0.757612 1.00556 0.509093C1.37755 0.260574 1.81486 0.12793 2.26224 0.12793C2.55943 0.12793 2.85373 0.18649 3.12829 0.300262C3.40284 0.414035 3.65229 0.580794 3.86238 0.791006C4.07246 1.00122 4.23906 1.25076 4.35267 1.52539C4.46628 1.80001 4.52466 2.09433 4.52449 2.39152Z" fill="white"/>
<path d="M4.20147 6.36133H0.291504V18.9002H4.20147V6.36133Z" fill="white"/>
<path d="M6.65161 18.8992H10.5454V12.4298C10.5454 12.4298 10.3982 9.50446 12.7401 9.50446C15.082 9.50446 14.9146 11.7167 14.9146 12.4474V18.8992H18.8488V12.1017C18.8488 12.1017 19.0865 7.16523 16.199 6.36163C13.3114 5.55803 11.4098 6.48993 10.4036 8.13496V6.36163H6.65703L6.65161 18.8992Z" fill="white"/>
</svg>
