<svg width="23" height="32" viewBox="0 0 23 32" fill="none" xmlns="http://www.w3.org/2000/svg">
<path d="M11.0833 3.16667C14.1392 3.16667 19 5.38333 19 11.3208C19 14.7408 16.2767 18.715 11.0833 22.9108C5.89 18.715 3.16667 14.725 3.16667 11.3208C3.16667 5.38333 8.0275 3.16667 11.0833 3.16667ZM11.0833 0C5.90583 0 0 3.895 0 11.3208C0 16.2608 3.68917 21.47 11.0833 26.9167C18.4775 21.47 22.1667 16.2608 22.1667 11.3208C22.1667 3.895 16.2608 0 11.0833 0Z" fill="#DEBA3F"/>
<path d="M11.0833 7.9165C9.34167 7.9165 7.91667 9.3415 7.91667 11.0832C7.91667 12.8248 9.34167 14.2498 11.0833 14.2498C11.9232 14.2498 12.7286 13.9162 13.3225 13.3223C13.9164 12.7285 14.25 11.923 14.25 11.0832C14.25 10.2433 13.9164 9.43786 13.3225 8.844C12.7286 8.25013 11.9232 7.9165 11.0833 7.9165ZM0 28.4998H22.1667V31.6665H0V28.4998Z" fill="#DEBA3F"/>
</svg>
