<svg width="32" height="32" viewBox="0 0 32 32" fill="none" xmlns="http://www.w3.org/2000/svg">
<path d="M6.29333 3.55556C6.4 5.13778 6.66667 6.68444 7.09333 8.16L4.96 10.2933C4.23111 8.16 3.76889 5.90222 3.60889 3.55556H6.29333ZM23.8222 24.9244C25.3333 25.3511 26.88 25.6178 28.4444 25.7244V28.3733C26.0978 28.2133 23.84 27.7511 21.6889 27.04L23.8222 24.9244ZM8 0H1.77778C0.8 0 0 0.8 0 1.77778C0 18.4711 13.5289 32 30.2222 32C31.2 32 32 31.2 32 30.2222V24.0178C32 23.04 31.2 22.24 30.2222 22.24C28.0178 22.24 25.8667 21.8844 23.8756 21.2267C23.6978 21.1556 23.5022 21.1378 23.3244 21.1378C22.8622 21.1378 22.4178 21.3156 22.0622 21.6533L18.1511 25.5644C13.12 22.9867 8.99556 18.88 6.43556 13.8489L10.3467 9.93778C10.8444 9.44 10.9867 8.74667 10.7911 8.12444C10.1333 6.13333 9.77778 4 9.77778 1.77778C9.77778 0.8 8.97778 0 8 0Z" fill="#DEBA3F"/>
</svg>
