<svg width="14" height="14" viewBox="0 0 14 14" fill="none" xmlns="http://www.w3.org/2000/svg">
<path d="M2.905 1.5C2.95 2.1675 3.0625 2.82 3.2425 3.4425L2.3425 4.3425C2.035 3.4425 1.84 2.49 1.7725 1.5H2.905ZM10.3 10.515C10.9375 10.695 11.59 10.8075 12.25 10.8525V11.97C11.26 11.9025 10.3075 11.7075 9.4 11.4075L10.3 10.515ZM3.625 0H1C0.5875 0 0.25 0.3375 0.25 0.75C0.25 7.7925 5.9575 13.5 13 13.5C13.4125 13.5 13.75 13.1625 13.75 12.75V10.1325C13.75 9.72 13.4125 9.3825 13 9.3825C12.07 9.3825 11.1625 9.2325 10.3225 8.955C10.2475 8.925 10.165 8.9175 10.09 8.9175C9.895 8.9175 9.7075 8.9925 9.5575 9.135L7.9075 10.785C5.785 9.6975 4.045 7.965 2.965 5.8425L4.615 4.1925C4.825 3.9825 4.885 3.69 4.8025 3.4275C4.525 2.5875 4.375 1.6875 4.375 0.75C4.375 0.3375 4.0375 0 3.625 0Z" fill="black"/>
</svg>
