<svg width="15" height="15" viewBox="0 0 15 15" fill="none" xmlns="http://www.w3.org/2000/svg">
<path d="M10.963 9.67702C10.8077 9.52141 10.5969 9.43396 10.377 9.43396H10.1428C10.0787 9.43396 10.0171 9.40911 9.97098 9.36463C9.87655 9.27357 9.87007 9.125 9.95137 9.02205C10.7025 8.07093 11.1492 6.87198 11.1492 5.57461C11.1492 2.49571 8.65352 0 5.57461 0C2.49571 0 0 2.49571 0 5.57461C0 8.65352 2.49571 11.1492 5.57461 11.1492C6.87199 11.1492 8.07093 10.7025 9.02205 9.95137C9.125 9.87007 9.27357 9.87655 9.36463 9.97098C9.40911 10.0171 9.43396 10.0787 9.43396 10.1428V10.377C9.43396 10.5969 9.52141 10.8077 9.67702 10.963L13.0826 14.3617C13.4359 14.7143 14.0081 14.714 14.3611 14.3611C14.714 14.0081 14.7143 13.4359 14.3617 13.0826L10.963 9.67702ZM5.57461 9.43396C3.43911 9.43396 1.71527 7.71012 1.71527 5.57461C1.71527 3.43911 3.43911 1.71527 5.57461 1.71527C7.71012 1.71527 9.43396 3.43911 9.43396 5.57461C9.43396 7.71012 7.71012 9.43396 5.57461 9.43396Z" fill="#222E34"/>
</svg>
