<svg width="26" height="18" viewBox="0 0 26 18" fill="none" xmlns="http://www.w3.org/2000/svg">
<g clip-path="url(#clip0_98_4077)">
<path d="M25.5544 3.64798C25.3474 2.53867 24.8373 1.50765 24.0802 0.668196C23.4998 0.133296 22.2925 0 13 0C3.70751 0 2.5019 0.133296 1.92155 0.668196C1.16305 1.50671 0.652767 2.53814 0.447357 3.64798C0.154468 5.41269 0.00486161 7.19803 0 8.98667C0 14.0132 0.892113 16.5045 2.05454 17.3507C3.21696 18.1969 13 17.9725 13 17.9725C13 17.9725 22.7848 18.1952 23.9455 17.3499C25.1062 16.5045 26 14.0123 26 8.98581C25.995 7.19753 25.846 5.41253 25.5544 3.64798ZM10.3651 13.7466V4.22589L17.6912 8.98667L10.3651 13.7466Z" fill="white"/>
</g>
<defs>
<clipPath id="clip0_98_4077">
<rect width="26" height="18" fill="white"/>
</clipPath>
</defs>
</svg>
