<svg width="124" height="27" viewBox="0 0 124 27" fill="none" xmlns="http://www.w3.org/2000/svg">
<g clip-path="url(#clip0_335_2256)">
<path d="M55.6437 22.4658C55.6438 23.3597 55.3717 24.2336 54.8618 24.9769C54.3519 25.7202 53.627 26.2996 52.7789 26.6418C51.9308 26.9839 50.9976 27.0735 50.0972 26.8991C49.1969 26.7247 48.3698 26.2943 47.7207 25.6622C47.0716 25.0301 46.6295 24.2247 46.4505 23.348C46.2714 22.4712 46.3634 21.5624 46.7147 20.7366C47.0661 19.9107 47.6611 19.2049 48.4244 18.7083C49.1878 18.2117 50.0852 17.9468 51.0032 17.9469C52.2339 17.9469 53.4143 18.423 54.2845 19.2704C55.1548 20.1179 55.6437 21.2673 55.6437 22.4658Z" fill="#E9A725"/>
<path d="M55.9178 0.437547H46.5013L37.0446 19.884C37.2039 19.223 37.2833 18.5461 37.2809 17.8671C37.2809 11.8996 30.4422 10.5901 25.0986 10.0434C19.1566 9.42503 17.1022 9.24257 17.1022 8.1527C17.1022 7.02399 18.9696 6.69714 21.5854 6.69714C25.6925 6.69714 29.7986 7.89487 32.1907 9.63909L35.4951 2.84597C32.3675 1.21273 27.6318 0.000488281 22.3326 0.000488281C14.6586 0.000488281 9.21336 2.70546 8.48248 7.81989V0.438454H0V26.5649H8.48274V24.3307C12.0537 26.0272 17.8246 27.0006 22.3708 27.0006C28.5288 27.0006 33.3535 25.615 35.7065 22.6365L33.7964 26.5645H42.9152L51.0607 9.5342L59.0939 26.5639H68.6241L55.9178 0.437547ZM22.932 20.196C19.2695 20.196 14.5252 19.2493 11.2367 16.7772L8.48274 22.5343V10.1346C9.20525 14.7302 14.4765 16.09 19.7181 16.6306C25.9214 17.2483 28.0131 17.3947 28.0131 18.7038C28.0128 19.8325 25.9957 20.196 22.932 20.196Z" fill="white"/>
<path d="M78.2103 6.37554C79.1859 6.04855 80.2849 5.25382 80.2849 3.66616C80.2849 1.59418 78.7422 0.437622 76.0649 0.437622H68.8691V12.8327H76.4373C79.009 12.8327 80.711 11.5728 80.711 9.41487C80.711 7.8425 79.6644 6.75717 78.2103 6.37554ZM70.5001 1.8353H75.9234C77.6256 1.8353 78.6712 2.47542 78.6712 3.80369C78.6712 5.11525 77.6253 5.75511 75.9234 5.75511H70.5001V1.8353ZM76.3669 11.4351H70.5001V7.17027H76.3669C78.0514 7.17027 79.0798 8.03416 79.0798 9.29405C79.0795 10.5712 78.0514 11.4351 76.3669 11.4351Z" fill="white"/>
<path d="M89.4496 8.46475C89.4496 10.3813 88.1383 11.5897 86.2949 11.5897C84.3791 11.5897 83.4933 10.4501 83.4933 8.72323V3.80396H81.8975V8.89546C81.8975 11.3489 83.3329 13.0219 85.8864 13.0219C87.6588 13.0219 88.7938 12.2104 89.4492 11.2797V12.8327H91.045V3.80396H89.4492L89.4496 8.46475Z" fill="white"/>
<path d="M94.5896 0.437622H92.9941V12.8329H94.5896V0.437622Z" fill="white"/>
<path d="M98.1352 0.437622H96.5391V12.8329H98.1352V0.437622Z" fill="white"/>
<path d="M101.682 3.80408H100.086V12.8329H101.682V3.80408Z" fill="white"/>
<path d="M108.257 3.63135C105.498 3.63135 103.428 5.54664 103.428 8.32698C103.428 11.0884 105.498 13.0223 108.257 13.0223C110.984 13.0223 113.07 11.0884 113.07 8.32698C113.07 5.54664 110.984 3.63135 108.257 3.63135ZM108.257 11.6762C106.318 11.6762 104.841 10.3646 104.841 8.32698C104.841 6.27222 106.318 4.97762 108.257 4.97762C110.163 4.97762 111.642 6.27261 111.642 8.32698C111.642 10.3646 110.163 11.6762 108.257 11.6762Z" fill="white"/>
<path d="M119.993 3.63147C118.256 3.63147 116.997 4.44149 116.342 5.39149V3.80383H114.746V12.8326H116.342V8.22324C116.342 6.30666 117.689 5.06347 119.551 5.06347C121.483 5.06347 122.387 6.34059 122.387 8.05062V12.8322H124V7.80768C124 5.35691 122.583 3.63147 119.993 3.63147Z" fill="white"/>
<path d="M100.885 0.437399C100.664 0.436989 100.447 0.500554 100.263 0.620049C100.078 0.739543 99.9345 0.909598 99.8495 1.10869C99.7645 1.30779 99.742 1.52697 99.7849 1.73852C99.8278 1.95006 99.9342 2.14445 100.091 2.29708C100.247 2.44972 100.446 2.55375 100.664 2.596C100.881 2.63825 101.106 2.61682 101.31 2.53444C101.515 2.45205 101.69 2.3124 101.813 2.13316C101.936 1.95392 102.002 1.74315 102.002 1.52752C102.008 1.38313 101.982 1.2392 101.928 1.10469C101.874 0.97018 101.792 0.847978 101.687 0.745702C101.582 0.643426 101.457 0.563269 101.319 0.510227C101.181 0.457184 101.033 0.432393 100.885 0.437399Z" fill="white"/>
</g>
<defs>
<clipPath id="clip0_335_2256">
<rect width="124" height="27" fill="white"/>
</clipPath>
</defs>
</svg>
