<svg width="64" height="43" viewBox="0 0 64 43" fill="none" xmlns="http://www.w3.org/2000/svg">
<g clip-path="url(#clip0_1_920)">
<path d="M51.8944 21.9468C51.8945 22.82 51.6408 23.6736 51.1653 24.3997C50.6898 25.1258 50.0139 25.6917 49.223 26.026C48.4321 26.3602 47.5619 26.4477 46.7223 26.2774C45.8827 26.1071 45.1114 25.6867 44.5061 25.0692C43.9007 24.4518 43.4885 23.6652 43.3215 22.8088C43.1544 21.9524 43.2402 21.0647 43.5678 20.258C43.8954 19.4512 44.4501 18.7617 45.1619 18.2766C45.8737 17.7916 46.7106 17.5327 47.5666 17.5327C48.7144 17.5327 49.8152 17.9978 50.6268 18.8257C51.4384 19.6536 51.8944 20.7764 51.8944 21.9472" fill="#DEBA3F"/>
<path d="M52.1501 0.426809H43.3682L34.5484 19.4237C34.6971 18.7779 34.7711 18.1167 34.769 17.4534C34.769 11.6239 28.3909 10.3446 23.4076 9.8105C17.8658 9.20645 15.9498 9.02817 15.9498 7.96304C15.9498 6.86046 17.6914 6.54123 20.131 6.54123C23.9613 6.54123 27.7908 7.71113 30.0217 9.41511L33.1032 2.7791C30.1861 1.18355 25.7701 -0.000732422 20.8279 -0.000732422C13.6711 -0.000732422 8.59278 2.6418 7.91109 7.638V0.426178H0.000305176V25.9496H7.91109V23.7675C11.2417 25.4254 16.6235 26.3758 20.8634 26.3758C26.6065 26.3758 31.1063 25.0219 33.3005 22.1126L31.5191 25.9499H40.0232L47.6203 9.31337L55.1123 25.9499H63.9996L52.1501 0.426809ZM21.3867 19.7289C17.9711 19.7289 13.5464 18.8041 10.4795 16.3893L7.91084 22.0132V9.89977C8.58487 14.3894 13.5009 15.7176 18.3893 16.2458C24.1741 16.8493 26.1253 16.9922 26.1253 18.271C26.1252 19.3732 24.244 19.7289 21.3867 19.7289Z" fill="white"/>
<path d="M8.71176 36.5065C9.62162 36.187 10.6466 35.4106 10.6466 33.8597C10.6466 31.836 9.20791 30.7058 6.71082 30.7058H0V42.8145H7.05791C9.45586 42.8145 11.0436 41.5837 11.0436 39.4756C11.044 37.9396 10.0678 36.8792 8.71176 36.5065ZM1.5211 32.0711H6.57893C8.16628 32.0711 9.14166 32.6964 9.14166 33.9944C9.14166 35.2756 8.16628 35.9007 6.57893 35.9007H1.5211V32.0711ZM6.99252 41.4492H1.5211V37.2829H6.99252C8.56368 37.2829 9.52224 38.1268 9.52224 39.3576C9.52224 40.6058 8.56368 41.4492 6.99252 41.4492Z" fill="white"/>
<path d="M19.1935 38.5473C19.1935 40.4201 17.9706 41.6001 16.2517 41.6001C14.4651 41.6001 13.6389 40.4871 13.6389 38.7998V33.9941H12.1506V38.9682C12.1506 41.3648 13.4894 42.9993 15.8711 42.9993C17.524 42.9993 18.5825 42.2063 19.1938 41.2972V42.8144H20.6824V33.9941H19.1935V38.5473Z" fill="white"/>
<path d="M23.9876 30.7058H22.4995V42.8146H23.9876V30.7058Z" fill="white"/>
<path d="M27.2946 30.7058H25.8061V42.8146H27.2946V30.7058Z" fill="white"/>
<path d="M30.6011 33.9944H29.1125V42.8146H30.6011V33.9944Z" fill="white"/>
<path d="M36.7336 33.8257C34.1603 33.8257 32.2299 35.6967 32.2299 38.4128C32.2299 41.1109 34.1603 42.9998 36.7336 42.9998C39.2769 42.9998 41.2224 41.1105 41.2224 38.4128C41.2224 35.6967 39.2768 33.8257 36.7336 33.8257ZM36.7336 41.6848C34.9259 41.6848 33.5479 40.4034 33.5479 38.4128C33.5479 36.4054 34.9259 35.1407 36.7336 35.1407C38.5113 35.1407 39.8904 36.4054 39.8904 38.4128C39.8904 40.4038 38.5113 41.6848 36.7336 41.6848Z" fill="white"/>
<path d="M47.679 33.8257C46.0591 33.8257 44.8848 34.617 44.2736 35.5449V33.9941H42.7851V42.8144H44.2736V38.3108C44.2736 36.4386 45.5298 35.2243 47.2663 35.2243C49.0681 35.2243 49.9115 36.4719 49.9115 38.1424V42.8137H51.4163V37.9055C51.4159 35.5118 50.0936 33.8257 47.679 33.8257Z" fill="white"/>
<path d="M29.8589 30.7055C29.6524 30.7051 29.4504 30.7671 29.2785 30.8839C29.1066 31.0006 28.9725 31.1667 28.8932 31.3612C28.8139 31.5557 28.7929 31.7698 28.833 31.9764C28.873 32.1831 28.9722 32.373 29.1181 32.5221C29.264 32.6712 29.4499 32.7728 29.6524 32.8141C29.8549 32.8553 30.0649 32.8344 30.2557 32.7539C30.4465 32.6735 30.6097 32.537 30.7245 32.3619C30.8393 32.1869 30.9006 31.981 30.9006 31.7703C30.9057 31.6293 30.8823 31.4887 30.8318 31.3573C30.7813 31.2259 30.7048 31.1065 30.607 31.0066C30.5093 30.9067 30.3924 30.8284 30.2637 30.7766C30.135 30.7247 29.9972 30.7005 29.8589 30.7055Z" fill="white"/>
</g>
<defs>
<clipPath id="clip0_1_920">
<rect width="64" height="43" fill="white"/>
</clipPath>
</defs>
</svg>
