<svg width="68" height="47" viewBox="0 0 68 47" fill="none" xmlns="http://www.w3.org/2000/svg">
<g clip-path="url(#clip0_1_63)">
<path d="M55.1378 23.9885C55.138 24.9429 54.8684 25.876 54.3631 26.6696C53.8579 27.4632 53.1397 28.0818 52.2994 28.4471C51.4592 28.8124 50.5345 28.9081 49.6424 28.722C48.7503 28.5358 47.9309 28.0763 47.2877 27.4014C46.6445 26.7266 46.2065 25.8668 46.0291 24.9307C45.8516 23.9946 45.9427 23.0243 46.2907 22.1426C46.6388 21.2608 47.2283 20.5072 47.9845 19.977C48.7408 19.4467 49.63 19.1638 50.5395 19.1638C51.7591 19.1638 52.9287 19.6722 53.791 20.5771C54.6533 21.4819 55.1378 22.7092 55.1378 23.9889" fill="#DEBA3F"/>
<path d="M55.4094 0.466336H46.0787L36.7077 21.2303C36.8656 20.5245 36.9443 19.8018 36.942 19.0768C36.942 12.705 30.1653 11.3067 24.8705 10.7229C18.9824 10.0627 16.9467 9.86782 16.9467 8.70361C16.9467 7.49847 18.7971 7.14954 21.3892 7.14954C25.4589 7.14954 29.5277 8.42827 31.8981 10.2908L35.1722 3.03744C32.0728 1.29347 27.3807 -0.000976562 22.1297 -0.000976562C14.5256 -0.000976562 9.12981 2.88737 8.40552 8.34834V0.465646H0.000305176V28.3633H8.40552V25.9783C11.9442 27.7903 17.6624 28.8291 22.1673 28.8291C28.2694 28.8291 33.0504 27.3493 35.3818 24.1694L33.489 28.3636H42.5246L50.5965 10.1795L58.5568 28.3636H67.9995L55.4094 0.466336ZM22.7234 21.564C19.0943 21.564 14.393 20.5531 11.1345 17.9137L8.40525 24.0608V10.8205C9.1214 15.7278 14.3447 17.1796 19.5386 17.7569C25.6849 18.4165 27.7581 18.5727 27.7581 19.9705C27.758 21.1752 25.7593 21.564 22.7234 21.564Z" fill="#222E34"/>
<path d="M9.25624 39.9021C10.223 39.5529 11.312 38.7043 11.312 37.0091C11.312 34.7971 9.78341 33.5618 7.13025 33.5618H0V46.7968H7.49903C10.0469 46.7968 11.7338 45.4515 11.7338 43.1474C11.7342 41.4684 10.6971 40.3095 9.25624 39.9021ZM1.61616 35.0541H6.99012C8.67667 35.0541 9.71301 35.7375 9.71301 37.1562C9.71301 38.5567 8.67667 39.2399 6.99012 39.2399H1.61616V35.0541ZM7.42955 45.3045H1.61616V40.7507H7.42955C9.09891 40.7507 10.1174 41.6731 10.1174 43.0184C10.1174 44.3827 9.09891 45.3045 7.42955 45.3045Z" fill="#222E34"/>
<path d="M20.3932 42.1325C20.3932 44.1795 19.0938 45.4692 17.2675 45.4692C15.3692 45.4692 14.4914 44.2527 14.4914 42.4085V37.1558H12.91V42.5925C12.91 45.2121 14.3325 46.9987 16.8631 46.9987C18.6193 46.9987 19.744 46.1318 20.3934 45.1382V46.7965H21.9751V37.1558H20.3932V42.1325Z" fill="#222E34"/>
<path d="M25.4869 33.5615H23.9058V46.7967H25.4869V33.5615Z" fill="#222E34"/>
<path d="M29.0005 33.5615H27.419V46.7967H29.0005V33.5615Z" fill="#222E34"/>
<path d="M32.5137 37.156H30.9321V46.7967H32.5137V37.156Z" fill="#222E34"/>
<path d="M39.0295 36.9717C36.2953 36.9717 34.2443 39.0168 34.2443 41.9855C34.2443 44.9346 36.2953 46.9992 39.0295 46.9992C41.7317 46.9992 43.7988 44.9342 43.7988 41.9855C43.7988 39.0168 41.7316 36.9717 39.0295 36.9717ZM39.0295 45.5619C37.1087 45.5619 35.6447 44.1613 35.6447 41.9855C35.6447 39.7914 37.1087 38.409 39.0295 38.409C40.9183 38.409 42.3835 39.7914 42.3835 41.9855C42.3835 44.1617 40.9183 45.5619 39.0295 45.5619Z" fill="#222E34"/>
<path d="M50.659 36.9717C48.9377 36.9717 47.6901 37.8366 47.0407 38.8508V37.1558H45.4592V46.7965H47.0407V41.874C47.0407 39.8276 48.3754 38.5004 50.2205 38.5004C52.1349 38.5004 53.0309 39.864 53.0309 41.69V46.7958H54.6298V41.4311C54.6294 38.8146 53.2244 36.9717 50.659 36.9717Z" fill="#222E34"/>
<path d="M31.7251 33.5612C31.5057 33.5608 31.2911 33.6287 31.1084 33.7562C30.9258 33.8838 30.7833 34.0654 30.6991 34.278C30.6148 34.4906 30.5925 34.7246 30.635 34.9505C30.6776 35.1763 30.783 35.3839 30.938 35.5468C31.093 35.7098 31.2905 35.8209 31.5057 35.866C31.7209 35.9111 31.9439 35.8882 32.1467 35.8003C32.3495 35.7123 32.5228 35.5632 32.6448 35.3718C32.7668 35.1804 32.8319 34.9554 32.8319 34.7252C32.8374 34.571 32.8125 34.4173 32.7588 34.2737C32.7051 34.13 32.6238 33.9996 32.52 33.8904C32.4161 33.7812 32.292 33.6956 32.1552 33.6389C32.0184 33.5823 31.872 33.5559 31.7251 33.5612Z" fill="#222E34"/>
</g>
<defs>
<clipPath id="clip0_1_63">
<rect width="68" height="47" fill="white"/>
</clipPath>
</defs>
</svg>
