<svg width="120" height="30" viewBox="0 0 120 30" fill="none" xmlns="http://www.w3.org/2000/svg">
<path d="M31.3482 10.6326H43.4263V12.9403H38.6772V25.9129H36.0657V12.9403H31.3376V10.6326H31.3482ZM42.9103 14.849H45.1427V16.9841H45.1848C45.2585 16.6822 45.3954 16.391 45.5955 16.1106C45.7956 15.8303 46.0378 15.5607 46.3221 15.3342C46.6064 15.097 46.9223 14.9137 47.2698 14.7627C47.6173 14.6225 47.9753 14.547 48.3333 14.547C48.6071 14.547 48.8072 14.5578 48.9125 14.5686C49.0178 14.5794 49.1231 14.6009 49.2389 14.6117V16.9625C49.0704 16.9302 48.902 16.9086 48.7229 16.8871C48.5439 16.8655 48.3755 16.8547 48.207 16.8547C47.8068 16.8547 47.4277 16.941 47.0697 17.1027C46.7117 17.2645 46.4063 17.5125 46.1431 17.8252C45.8798 18.1487 45.6692 18.537 45.5112 19.0114C45.3533 19.4859 45.2796 20.0251 45.2796 20.6398V25.9022H42.8998V14.849H42.9103ZM60.1798 25.9129H57.8421V24.3709H57.8C57.5051 24.9316 57.0734 25.3738 56.4942 25.7081C55.9151 26.0423 55.3254 26.2149 54.7251 26.2149C53.3036 26.2149 52.2716 25.859 51.6398 25.1365C51.008 24.414 50.6921 23.3249 50.6921 21.8691V14.849H53.0719V21.6318C53.0719 22.6024 53.2509 23.2925 53.6195 23.6915C53.9775 24.0905 54.4935 24.2954 55.1463 24.2954C55.6518 24.2954 56.0625 24.2199 56.3994 24.0582C56.7364 23.8964 57.0102 23.6915 57.2103 23.4219C57.4209 23.1631 57.5683 22.8396 57.6631 22.473C57.7578 22.1063 57.8 21.7073 57.8 21.276V14.8597H60.1798V25.9129ZM64.2339 22.3651C64.3076 23.0769 64.5708 23.5729 65.0236 23.8641C65.487 24.1444 66.0345 24.2954 66.6769 24.2954C66.898 24.2954 67.1507 24.2738 67.4351 24.2415C67.7194 24.2091 67.9931 24.1336 68.2353 24.0366C68.4881 23.9395 68.6881 23.7886 68.8566 23.5945C69.0146 23.4004 69.0883 23.1523 69.0778 22.8396C69.0672 22.5269 68.9514 22.2681 68.7408 22.074C68.5302 21.8691 68.2669 21.7181 67.9405 21.5887C67.6141 21.4701 67.2455 21.3623 66.8243 21.276C66.4031 21.1897 65.9819 21.0927 65.5502 20.9956C65.1079 20.8986 64.6761 20.7692 64.2655 20.629C63.8548 20.4888 63.4862 20.2947 63.1598 20.0467C62.8334 19.8094 62.5701 19.4967 62.3806 19.1193C62.1805 18.7418 62.0857 18.2781 62.0857 17.7174C62.0857 17.1135 62.2332 16.6175 62.5175 16.2077C62.8018 15.7979 63.1703 15.4744 63.6021 15.2264C64.0443 14.9784 64.5287 14.8058 65.0658 14.698C65.6028 14.6009 66.1188 14.547 66.6032 14.547C67.1613 14.547 67.6983 14.6117 68.2038 14.7303C68.7092 14.849 69.1725 15.0431 69.5832 15.3234C69.9939 15.593 70.3308 15.9489 70.6046 16.3802C70.8784 16.8116 71.0469 17.34 71.1206 17.9546H68.6355C68.5197 17.3723 68.2669 16.9733 67.8563 16.7792C67.4456 16.5743 66.9717 16.4773 66.4452 16.4773C66.2767 16.4773 66.0767 16.4881 65.845 16.5204C65.6133 16.5528 65.4027 16.6067 65.1921 16.6822C64.9921 16.7577 64.8236 16.8763 64.6761 17.0272C64.5393 17.1782 64.4655 17.3723 64.4655 17.6203C64.4655 17.9223 64.5708 18.1595 64.7709 18.3428C64.971 18.5262 65.2342 18.6771 65.5607 18.8065C65.8871 18.9252 66.2557 19.033 66.6769 19.1193C67.0981 19.2055 67.5298 19.3026 67.9721 19.3996C68.4038 19.4967 68.825 19.6261 69.2462 19.7663C69.6674 19.9065 70.036 20.1006 70.3624 20.3486C70.6889 20.5966 70.9521 20.8986 71.1522 21.2652C71.3523 21.6318 71.4576 22.0955 71.4576 22.6347C71.4576 23.2925 71.3102 23.8425 71.0153 24.3062C70.7205 24.7591 70.3414 25.1365 69.878 25.4169C69.4147 25.6973 68.8882 25.9129 68.3196 26.0423C67.751 26.1717 67.1823 26.2365 66.6242 26.2365C65.9398 26.2365 65.308 26.161 64.7288 25.9992C64.1496 25.8375 63.6442 25.6002 63.223 25.2875C62.8018 24.964 62.4648 24.565 62.2226 24.0905C61.9804 23.616 61.8541 23.0445 61.833 22.3867H64.2339V22.3651ZM72.0894 14.849H73.89V11.5276H76.2699V14.849H78.418V16.6714H76.2699V22.5808C76.2699 22.8396 76.2804 23.0553 76.3014 23.2494C76.3225 23.4327 76.3752 23.5945 76.4489 23.7239C76.5226 23.8533 76.6384 23.9503 76.7964 24.015C76.9543 24.0797 77.1544 24.1121 77.4282 24.1121C77.5967 24.1121 77.7651 24.1121 77.9336 24.1013C78.1021 24.0905 78.2706 24.0689 78.4391 24.0258V25.9129C78.1758 25.9453 77.9126 25.9669 77.6704 25.9992C77.4176 26.0316 77.1649 26.0423 76.9017 26.0423C76.2699 26.0423 75.7644 25.9776 75.3853 25.859C75.0062 25.7404 74.7009 25.5571 74.4903 25.3198C74.2691 25.0826 74.1322 24.7914 74.048 24.4356C73.9743 24.0797 73.9216 23.67 73.9111 23.217V16.693H72.1104V14.849H72.0894ZM80.1028 14.849H82.3563V16.3479H82.3984C82.7354 15.7009 83.1987 15.248 83.7989 14.9676C84.3991 14.6872 85.0415 14.547 85.747 14.547C86.5999 14.547 87.3371 14.698 87.9689 15.0107C88.6007 15.3127 89.1272 15.7332 89.5484 16.2724C89.9696 16.8116 90.275 17.437 90.4856 18.1487C90.6962 18.8605 90.8015 19.6261 90.8015 20.4349C90.8015 21.1789 90.7067 21.9014 90.5172 22.5916C90.3276 23.2925 90.0433 23.9072 89.6642 24.4464C89.2851 24.9856 88.8008 25.4061 88.2111 25.7296C87.6214 26.0531 86.9369 26.2149 86.1366 26.2149C85.7891 26.2149 85.4416 26.1825 85.0941 26.1178C84.7466 26.0531 84.4097 25.9453 84.0938 25.8051C83.7779 25.6649 83.4725 25.4816 83.2092 25.2551C82.9355 25.0287 82.7143 24.7699 82.5248 24.4787H82.4827V29.9999H80.1028V14.849ZM88.4217 20.3917C88.4217 19.8957 88.3585 19.4104 88.2321 18.9359C88.1058 18.4615 87.9162 18.0517 87.6635 17.685C87.4108 17.3184 87.0949 17.0272 86.7263 16.8116C86.3472 16.5959 85.9155 16.4773 85.4311 16.4773C84.4307 16.4773 83.6726 16.8331 83.1671 17.5449C82.6617 18.2566 82.4089 19.2055 82.4089 20.3917C82.4089 20.9525 82.4721 21.4701 82.609 21.9446C82.7459 22.4191 82.9355 22.8288 83.2092 23.1739C83.4725 23.519 83.7884 23.7886 84.157 23.9827C84.5255 24.1876 84.9573 24.2846 85.4416 24.2846C85.9892 24.2846 86.442 24.166 86.8211 23.9395C87.2002 23.7131 87.5055 23.4111 87.7477 23.0553C87.9899 22.6886 88.1689 22.2789 88.2742 21.8152C88.369 21.3515 88.4217 20.877 88.4217 20.3917ZM92.6232 10.6326H95.003V12.9403H92.6232V10.6326ZM92.6232 14.849H95.003V25.9129H92.6232V14.849ZM97.1301 10.6326H99.5099V25.9129H97.1301V10.6326ZM106.807 26.2149C105.944 26.2149 105.175 26.0639 104.501 25.7728C103.827 25.4816 103.259 25.0718 102.785 24.565C102.321 24.0474 101.963 23.4327 101.721 22.721C101.479 22.0093 101.353 21.2221 101.353 20.3702C101.353 19.529 101.479 18.7526 101.721 18.0409C101.963 17.3292 102.321 16.7145 102.785 16.1969C103.248 15.6793 103.827 15.2803 104.501 14.9891C105.175 14.698 105.944 14.547 106.807 14.547C107.671 14.547 108.44 14.698 109.113 14.9891C109.787 15.2803 110.356 15.6901 110.83 16.1969C111.293 16.7145 111.651 17.3292 111.893 18.0409C112.136 18.7526 112.262 19.529 112.262 20.3702C112.262 21.2221 112.136 22.0093 111.893 22.721C111.651 23.4327 111.293 24.0474 110.83 24.565C110.367 25.0826 109.787 25.4816 109.113 25.7728C108.44 26.0639 107.671 26.2149 106.807 26.2149ZM106.807 24.2846C107.334 24.2846 107.797 24.166 108.187 23.9395C108.576 23.7131 108.892 23.4111 109.145 23.0445C109.398 22.6779 109.577 22.2573 109.703 21.7936C109.819 21.3299 109.882 20.8554 109.882 20.3702C109.882 19.8957 109.819 19.432 109.703 18.9575C109.587 18.483 109.398 18.0733 109.145 17.7066C108.892 17.34 108.576 17.0488 108.187 16.8224C107.797 16.5959 107.334 16.4773 106.807 16.4773C106.281 16.4773 105.817 16.5959 105.428 16.8224C105.038 17.0488 104.722 17.3508 104.47 17.7066C104.217 18.0733 104.038 18.483 103.912 18.9575C103.796 19.432 103.733 19.8957 103.733 20.3702C103.733 20.8554 103.796 21.3299 103.912 21.7936C104.027 22.2573 104.217 22.6779 104.47 23.0445C104.722 23.4111 105.038 23.7131 105.428 23.9395C105.817 24.1768 106.281 24.2846 106.807 24.2846ZM112.957 14.849H114.758V11.5276H117.137V14.849H119.286V16.6714H117.137V22.5808C117.137 22.8396 117.148 23.0553 117.169 23.2494C117.19 23.4327 117.243 23.5945 117.316 23.7239C117.39 23.8533 117.506 23.9503 117.664 24.015C117.822 24.0797 118.022 24.1121 118.296 24.1121C118.464 24.1121 118.633 24.1121 118.801 24.1013C118.97 24.0905 119.138 24.0689 119.307 24.0258V25.9129C119.043 25.9453 118.78 25.9669 118.538 25.9992C118.285 26.0316 118.032 26.0423 117.769 26.0423C117.137 26.0423 116.632 25.9776 116.253 25.859C115.874 25.7404 115.568 25.5571 115.358 25.3198C115.137 25.0826 115 24.7914 114.916 24.4356C114.842 24.0797 114.789 23.67 114.779 23.217V16.693H112.978V14.849H112.957Z" fill="#191919"/>
<path d="M28.5683 10.6326H17.6591L14.2894 0L10.9092 10.6326L0 10.6219L8.83481 17.1999L5.45462 27.8217L14.2894 21.2545L23.1137 27.8217L19.7441 17.1999L28.5683 10.6326Z" fill="#00B67A"/>
</svg>
