<svg width="581" height="417" viewBox="0 0 581 417" fill="none" xmlns="http://www.w3.org/2000/svg">
<rect x="0.5" y="0.5" width="580" height="416" rx="19.5" fill="#FBFBFB" stroke="#ACACAC"/>
<g filter="url(#filter0_d_1363_10)">
<path d="M502 68H71C68.7909 68 67 69.7909 67 72V101C67 103.209 68.7909 105 71 105H502C504.209 105 506 103.209 506 101V72C506 69.7909 504.209 68 502 68Z" fill="white"/>
<path d="M501.383 68.4561H71.6162C69.4071 68.4561 67.6162 70.2469 67.6162 72.4561V100.544C67.6162 102.753 69.4071 104.544 71.6162 104.544H501.383C503.592 104.544 505.383 102.753 505.383 100.544V72.4561C505.383 70.2469 503.592 68.4561 501.383 68.4561Z" stroke="#ACACAC"/>
</g>
<path d="M501.767 155H72C69.7909 155 68 156.791 68 159V187.088C68 189.297 69.7909 191.088 72 191.088H501.767C503.976 191.088 505.767 189.297 505.767 187.088V159C505.767 156.791 503.976 155 501.767 155Z" fill="white" stroke="#DEBA3F" stroke-width="2"/>
<path d="M79.079 178V168.9H83.213C84.201 168.9 85.072 169.091 85.826 169.472C86.58 169.845 87.1693 170.369 87.594 171.045C88.0187 171.721 88.231 172.523 88.231 173.45C88.231 174.369 88.0187 175.17 87.594 175.855C87.1693 176.531 86.58 177.06 85.826 177.441C85.072 177.814 84.201 178 83.213 178H79.079ZM81.185 176.271H83.109C83.7157 176.271 84.24 176.158 84.682 175.933C85.1327 175.699 85.4793 175.37 85.722 174.945C85.9733 174.52 86.099 174.022 86.099 173.45C86.099 172.869 85.9733 172.371 85.722 171.955C85.4793 171.53 85.1327 171.205 84.682 170.98C84.24 170.746 83.7157 170.629 83.109 170.629H81.185V176.271ZM89.8192 178V168.9H91.5612L95.4352 175.322H94.5122L98.3212 168.9H100.05L100.076 178H98.1002L98.0872 171.929H98.4512L95.4092 177.038H94.4602L91.3532 171.929H91.7952V178H89.8192ZM106.59 178.156C105.888 178.156 105.234 178.043 104.627 177.818C104.029 177.584 103.509 177.255 103.067 176.83C102.625 176.405 102.279 175.907 102.027 175.335C101.785 174.763 101.663 174.135 101.663 173.45C101.663 172.765 101.785 172.137 102.027 171.565C102.279 170.993 102.625 170.495 103.067 170.07C103.518 169.645 104.042 169.32 104.64 169.095C105.238 168.861 105.893 168.744 106.603 168.744C107.392 168.744 108.103 168.883 108.735 169.16C109.377 169.429 109.914 169.827 110.347 170.356L108.995 171.604C108.683 171.249 108.337 170.984 107.955 170.811C107.574 170.629 107.158 170.538 106.707 170.538C106.283 170.538 105.893 170.607 105.537 170.746C105.182 170.885 104.874 171.084 104.614 171.344C104.354 171.604 104.151 171.912 104.003 172.267C103.865 172.622 103.795 173.017 103.795 173.45C103.795 173.883 103.865 174.278 104.003 174.633C104.151 174.988 104.354 175.296 104.614 175.556C104.874 175.816 105.182 176.015 105.537 176.154C105.893 176.293 106.283 176.362 106.707 176.362C107.158 176.362 107.574 176.275 107.955 176.102C108.337 175.92 108.683 175.647 108.995 175.283L110.347 176.531C109.914 177.06 109.377 177.463 108.735 177.74C108.103 178.017 107.388 178.156 106.59 178.156ZM115.934 178.156C115.232 178.156 114.578 178.043 113.971 177.818C113.373 177.584 112.853 177.255 112.411 176.83C111.969 176.405 111.622 175.907 111.371 175.335C111.128 174.763 111.007 174.135 111.007 173.45C111.007 172.765 111.128 172.137 111.371 171.565C111.622 170.993 111.969 170.495 112.411 170.07C112.862 169.645 113.386 169.32 113.984 169.095C114.582 168.861 115.236 168.744 115.947 168.744C116.736 168.744 117.446 168.883 118.079 169.16C118.72 169.429 119.258 169.827 119.691 170.356L118.339 171.604C118.027 171.249 117.68 170.984 117.299 170.811C116.918 170.629 116.502 170.538 116.051 170.538C115.626 170.538 115.236 170.607 114.881 170.746C114.526 170.885 114.218 171.084 113.958 171.344C113.698 171.604 113.494 171.912 113.347 172.267C113.208 172.622 113.139 173.017 113.139 173.45C113.139 173.883 113.208 174.278 113.347 174.633C113.494 174.988 113.698 175.296 113.958 175.556C114.218 175.816 114.526 176.015 114.881 176.154C115.236 176.293 115.626 176.362 116.051 176.362C116.502 176.362 116.918 176.275 117.299 176.102C117.68 175.92 118.027 175.647 118.339 175.283L119.691 176.531C119.258 177.06 118.72 177.463 118.079 177.74C117.446 178.017 116.731 178.156 115.934 178.156ZM120.659 175.153V173.528H124.338V175.153H120.659ZM128.202 178.156C127.569 178.156 126.941 178.074 126.317 177.909C125.693 177.736 125.164 177.493 124.731 177.181L125.55 175.569C125.897 175.82 126.3 176.02 126.759 176.167C127.218 176.314 127.682 176.388 128.15 176.388C128.679 176.388 129.095 176.284 129.398 176.076C129.701 175.868 129.853 175.582 129.853 175.218C129.853 174.871 129.719 174.598 129.45 174.399C129.181 174.2 128.748 174.1 128.15 174.1H127.188V172.709L129.723 169.836L129.957 170.59H125.186V168.9H131.556V170.265L129.034 173.138L127.968 172.527H128.579C129.697 172.527 130.542 172.778 131.114 173.281C131.686 173.784 131.972 174.429 131.972 175.218C131.972 175.729 131.838 176.21 131.569 176.661C131.3 177.103 130.889 177.463 130.334 177.74C129.779 178.017 129.069 178.156 128.202 178.156ZM134.348 178V169.68L135.259 170.59H132.529V168.9H136.455V178H134.348ZM137.957 178V176.635L141.467 173.32C141.745 173.069 141.948 172.843 142.078 172.644C142.208 172.445 142.295 172.263 142.338 172.098C142.39 171.933 142.416 171.782 142.416 171.643C142.416 171.279 142.291 171.002 142.039 170.811C141.797 170.612 141.437 170.512 140.96 170.512C140.579 170.512 140.224 170.586 139.894 170.733C139.574 170.88 139.301 171.11 139.075 171.422L137.541 170.434C137.888 169.914 138.373 169.502 138.997 169.199C139.621 168.896 140.341 168.744 141.155 168.744C141.831 168.744 142.421 168.857 142.923 169.082C143.435 169.299 143.829 169.606 144.106 170.005C144.392 170.404 144.535 170.88 144.535 171.435C144.535 171.73 144.496 172.024 144.418 172.319C144.349 172.605 144.202 172.908 143.976 173.229C143.76 173.55 143.439 173.909 143.014 174.308L140.102 177.051L139.699 176.284H144.834V178H137.957ZM145.625 178V176.635L149.135 173.32C149.413 173.069 149.616 172.843 149.746 172.644C149.876 172.445 149.963 172.263 150.006 172.098C150.058 171.933 150.084 171.782 150.084 171.643C150.084 171.279 149.959 171.002 149.707 170.811C149.465 170.612 149.105 170.512 148.628 170.512C148.247 170.512 147.892 170.586 147.562 170.733C147.242 170.88 146.969 171.11 146.743 171.422L145.209 170.434C145.556 169.914 146.041 169.502 146.665 169.199C147.289 168.896 148.009 168.744 148.823 168.744C149.499 168.744 150.089 168.857 150.591 169.082C151.103 169.299 151.497 169.606 151.774 170.005C152.06 170.404 152.203 170.88 152.203 171.435C152.203 171.73 152.164 172.024 152.086 172.319C152.017 172.605 151.87 172.908 151.644 173.229C151.428 173.55 151.107 173.909 150.682 174.308L147.77 177.051L147.367 176.284H152.502V178H145.625ZM154.827 178L158.493 169.706L159.039 170.616H154.138L155.074 169.628V172.098H153.202V168.9H160.495V170.265L157.115 178H154.827Z" fill="black"/>
<path d="M73.434 134.104C72.7407 134.104 72.0993 133.991 71.51 133.766C70.9293 133.532 70.4223 133.207 69.989 132.791C69.5643 132.366 69.2307 131.872 68.988 131.309C68.7453 130.746 68.624 130.126 68.624 129.45C68.624 128.774 68.7453 128.154 68.988 127.591C69.2307 127.028 69.5687 126.538 70.002 126.122C70.4353 125.697 70.9423 125.372 71.523 125.147C72.1123 124.913 72.7537 124.796 73.447 124.796C74.149 124.796 74.7947 124.917 75.384 125.16C75.982 125.394 76.489 125.745 76.905 126.213L76.06 127.032C75.7133 126.668 75.3233 126.399 74.89 126.226C74.4567 126.044 73.993 125.953 73.499 125.953C72.9877 125.953 72.511 126.04 72.069 126.213C71.6357 126.386 71.2587 126.629 70.938 126.941C70.6173 127.253 70.366 127.626 70.184 128.059C70.0107 128.484 69.924 128.947 69.924 129.45C69.924 129.953 70.0107 130.421 70.184 130.854C70.366 131.279 70.6173 131.647 70.938 131.959C71.2587 132.271 71.6357 132.514 72.069 132.687C72.511 132.86 72.9877 132.947 73.499 132.947C73.993 132.947 74.4567 132.86 74.89 132.687C75.3233 132.505 75.7133 132.228 76.06 131.855L76.905 132.674C76.489 133.142 75.982 133.497 75.384 133.74C74.7947 133.983 74.1447 134.104 73.434 134.104ZM81.2607 134.078C80.6714 134.078 80.1514 133.97 79.7007 133.753C79.2587 133.536 78.912 133.207 78.6607 132.765C78.418 132.314 78.2967 131.751 78.2967 131.075V127.11H79.5447V130.932C79.5447 131.608 79.705 132.115 80.0257 132.453C80.355 132.791 80.8144 132.96 81.4037 132.96C81.837 132.96 82.214 132.873 82.5347 132.7C82.8554 132.518 83.1024 132.258 83.2757 131.92C83.449 131.573 83.5357 131.157 83.5357 130.672V127.11H84.7837V134H83.6007V132.141L83.7957 132.635C83.5704 133.094 83.2324 133.45 82.7817 133.701C82.331 133.952 81.824 134.078 81.2607 134.078ZM89.1356 134.078C88.5636 134.078 88.0176 134 87.4976 133.844C86.9862 133.688 86.5832 133.497 86.2886 133.272L86.8086 132.284C87.1032 132.483 87.4672 132.652 87.9006 132.791C88.3339 132.93 88.7759 132.999 89.2266 132.999C89.8072 132.999 90.2232 132.917 90.4746 132.752C90.7346 132.587 90.8646 132.358 90.8646 132.063C90.8646 131.846 90.7866 131.677 90.6306 131.556C90.4746 131.435 90.2666 131.344 90.0066 131.283C89.7552 131.222 89.4736 131.17 89.1616 131.127C88.8496 131.075 88.5376 131.014 88.2256 130.945C87.9136 130.867 87.6276 130.763 87.3676 130.633C87.1076 130.494 86.8996 130.308 86.7436 130.074C86.5876 129.831 86.5096 129.511 86.5096 129.112C86.5096 128.696 86.6266 128.332 86.8606 128.02C87.0946 127.708 87.4239 127.47 87.8486 127.305C88.2819 127.132 88.7932 127.045 89.3826 127.045C89.8332 127.045 90.2882 127.101 90.7476 127.214C91.2156 127.318 91.5969 127.47 91.8916 127.669L91.3586 128.657C91.0466 128.449 90.7216 128.306 90.3836 128.228C90.0456 128.15 89.7076 128.111 89.3696 128.111C88.8236 128.111 88.4162 128.202 88.1476 128.384C87.8789 128.557 87.7446 128.783 87.7446 129.06C87.7446 129.294 87.8226 129.476 87.9786 129.606C88.1432 129.727 88.3512 129.823 88.6026 129.892C88.8626 129.961 89.1486 130.022 89.4606 130.074C89.7726 130.117 90.0846 130.178 90.3966 130.256C90.7086 130.325 90.9902 130.425 91.2416 130.555C91.5016 130.685 91.7096 130.867 91.8656 131.101C92.0302 131.335 92.1126 131.647 92.1126 132.037C92.1126 132.453 91.9912 132.813 91.7486 133.116C91.5059 133.419 91.1636 133.658 90.7216 133.831C90.2796 133.996 89.7509 134.078 89.1356 134.078ZM96.0383 134.078C95.3449 134.078 94.8076 133.892 94.4263 133.519C94.0449 133.146 93.8543 132.613 93.8543 131.92V125.602H95.1023V131.868C95.1023 132.241 95.1933 132.527 95.3753 132.726C95.5659 132.925 95.8346 133.025 96.1813 133.025C96.5713 133.025 96.8963 132.917 97.1563 132.7L97.5463 133.597C97.3556 133.762 97.1259 133.883 96.8573 133.961C96.5973 134.039 96.3243 134.078 96.0383 134.078ZM92.6843 128.137V127.11H97.0783V128.137H92.6843ZM101.778 134.078C101.084 134.078 100.469 133.926 99.9316 133.623C99.3942 133.32 98.9696 132.904 98.6576 132.375C98.3456 131.838 98.1896 131.231 98.1896 130.555C98.1896 129.87 98.3456 129.264 98.6576 128.735C98.9696 128.206 99.3942 127.795 99.9316 127.5C100.469 127.197 101.084 127.045 101.778 127.045C102.462 127.045 103.073 127.197 103.611 127.5C104.157 127.795 104.581 128.206 104.885 128.735C105.197 129.255 105.353 129.862 105.353 130.555C105.353 131.24 105.197 131.846 104.885 132.375C104.581 132.904 104.157 133.32 103.611 133.623C103.073 133.926 102.462 134.078 101.778 134.078ZM101.778 132.986C102.22 132.986 102.614 132.886 102.961 132.687C103.316 132.488 103.593 132.206 103.793 131.842C103.992 131.469 104.092 131.04 104.092 130.555C104.092 130.061 103.992 129.636 103.793 129.281C103.593 128.917 103.316 128.635 102.961 128.436C102.614 128.237 102.22 128.137 101.778 128.137C101.336 128.137 100.941 128.237 100.595 128.436C100.248 128.635 99.9706 128.917 99.7626 129.281C99.5546 129.636 99.4506 130.061 99.4506 130.555C99.4506 131.04 99.5546 131.469 99.7626 131.842C99.9706 132.206 100.248 132.488 100.595 132.687C100.941 132.886 101.336 132.986 101.778 132.986ZM115.698 127.045C116.252 127.045 116.742 127.153 117.167 127.37C117.591 127.587 117.921 127.916 118.155 128.358C118.397 128.8 118.519 129.359 118.519 130.035V134H117.271V130.178C117.271 129.511 117.115 129.008 116.803 128.67C116.491 128.332 116.053 128.163 115.49 128.163C115.074 128.163 114.71 128.25 114.398 128.423C114.086 128.596 113.843 128.852 113.67 129.19C113.505 129.528 113.423 129.948 113.423 130.451V134H112.175V130.178C112.175 129.511 112.019 129.008 111.707 128.67C111.403 128.332 110.966 128.163 110.394 128.163C109.986 128.163 109.627 128.25 109.315 128.423C109.003 128.596 108.76 128.852 108.587 129.19C108.413 129.528 108.327 129.948 108.327 130.451V134H107.079V127.11H108.275V128.943L108.08 128.475C108.296 128.024 108.63 127.673 109.081 127.422C109.531 127.171 110.056 127.045 110.654 127.045C111.312 127.045 111.88 127.21 112.357 127.539C112.833 127.86 113.145 128.349 113.293 129.008L112.786 128.8C112.994 128.271 113.358 127.847 113.878 127.526C114.398 127.205 115.004 127.045 115.698 127.045ZM123.883 134.078C123.146 134.078 122.496 133.926 121.933 133.623C121.378 133.32 120.945 132.904 120.633 132.375C120.33 131.846 120.178 131.24 120.178 130.555C120.178 129.87 120.325 129.264 120.62 128.735C120.923 128.206 121.335 127.795 121.855 127.5C122.384 127.197 122.977 127.045 123.636 127.045C124.303 127.045 124.893 127.192 125.404 127.487C125.915 127.782 126.314 128.198 126.6 128.735C126.895 129.264 127.042 129.883 127.042 130.594C127.042 130.646 127.038 130.707 127.029 130.776C127.029 130.845 127.025 130.91 127.016 130.971H121.153V130.074H126.366L125.859 130.386C125.868 129.944 125.777 129.55 125.586 129.203C125.395 128.856 125.131 128.588 124.793 128.397C124.464 128.198 124.078 128.098 123.636 128.098C123.203 128.098 122.817 128.198 122.479 128.397C122.141 128.588 121.877 128.861 121.686 129.216C121.495 129.563 121.4 129.961 121.4 130.412V130.62C121.4 131.079 121.504 131.491 121.712 131.855C121.929 132.21 122.228 132.488 122.609 132.687C122.99 132.886 123.428 132.986 123.922 132.986C124.329 132.986 124.698 132.917 125.027 132.778C125.365 132.639 125.66 132.431 125.911 132.154L126.6 132.96C126.288 133.324 125.898 133.601 125.43 133.792C124.971 133.983 124.455 134.078 123.883 134.078ZM128.775 134V127.11H129.971V128.982L129.854 128.514C130.044 128.037 130.365 127.673 130.816 127.422C131.266 127.171 131.821 127.045 132.48 127.045V128.254C132.428 128.245 132.376 128.241 132.324 128.241C132.28 128.241 132.237 128.241 132.194 128.241C131.526 128.241 130.998 128.44 130.608 128.839C130.218 129.238 130.023 129.814 130.023 130.568V134H128.775ZM137.78 134V124.9H139.08V132.869H144.007V134H137.78ZM145.317 134V127.11H146.565V134H145.317ZM145.941 125.784C145.698 125.784 145.494 125.706 145.33 125.55C145.174 125.394 145.096 125.203 145.096 124.978C145.096 124.744 145.174 124.549 145.33 124.393C145.494 124.237 145.698 124.159 145.941 124.159C146.183 124.159 146.383 124.237 146.539 124.393C146.703 124.54 146.786 124.727 146.786 124.952C146.786 125.186 146.708 125.385 146.552 125.55C146.396 125.706 146.192 125.784 145.941 125.784ZM151.951 134.078C151.249 134.078 150.62 133.926 150.066 133.623C149.52 133.32 149.091 132.904 148.779 132.375C148.467 131.846 148.311 131.24 148.311 130.555C148.311 129.87 148.467 129.264 148.779 128.735C149.091 128.206 149.52 127.795 150.066 127.5C150.62 127.197 151.249 127.045 151.951 127.045C152.575 127.045 153.129 127.171 153.615 127.422C154.109 127.665 154.49 128.029 154.759 128.514L153.81 129.125C153.584 128.787 153.307 128.54 152.978 128.384C152.657 128.219 152.31 128.137 151.938 128.137C151.487 128.137 151.084 128.237 150.729 128.436C150.373 128.635 150.092 128.917 149.884 129.281C149.676 129.636 149.572 130.061 149.572 130.555C149.572 131.049 149.676 131.478 149.884 131.842C150.092 132.206 150.373 132.488 150.729 132.687C151.084 132.886 151.487 132.986 151.938 132.986C152.31 132.986 152.657 132.908 152.978 132.752C153.307 132.587 153.584 132.336 153.81 131.998L154.759 132.596C154.49 133.073 154.109 133.441 153.615 133.701C153.129 133.952 152.575 134.078 151.951 134.078ZM159.341 134.078C158.604 134.078 157.954 133.926 157.391 133.623C156.836 133.32 156.403 132.904 156.091 132.375C155.788 131.846 155.636 131.24 155.636 130.555C155.636 129.87 155.783 129.264 156.078 128.735C156.381 128.206 156.793 127.795 157.313 127.5C157.842 127.197 158.435 127.045 159.094 127.045C159.761 127.045 160.351 127.192 160.862 127.487C161.373 127.782 161.772 128.198 162.058 128.735C162.353 129.264 162.5 129.883 162.5 130.594C162.5 130.646 162.496 130.707 162.487 130.776C162.487 130.845 162.483 130.91 162.474 130.971H156.611V130.074H161.824L161.317 130.386C161.326 129.944 161.235 129.55 161.044 129.203C160.853 128.856 160.589 128.588 160.251 128.397C159.922 128.198 159.536 128.098 159.094 128.098C158.661 128.098 158.275 128.198 157.937 128.397C157.599 128.588 157.335 128.861 157.144 129.216C156.953 129.563 156.858 129.961 156.858 130.412V130.62C156.858 131.079 156.962 131.491 157.17 131.855C157.387 132.21 157.686 132.488 158.067 132.687C158.448 132.886 158.886 132.986 159.38 132.986C159.787 132.986 160.156 132.917 160.485 132.778C160.823 132.639 161.118 132.431 161.369 132.154L162.058 132.96C161.746 133.324 161.356 133.601 160.888 133.792C160.429 133.983 159.913 134.078 159.341 134.078ZM167.912 127.045C168.475 127.045 168.969 127.153 169.394 127.37C169.827 127.587 170.165 127.916 170.408 128.358C170.65 128.8 170.772 129.359 170.772 130.035V134H169.524V130.178C169.524 129.511 169.359 129.008 169.03 128.67C168.709 128.332 168.254 128.163 167.665 128.163C167.223 128.163 166.837 128.25 166.508 128.423C166.178 128.596 165.923 128.852 165.741 129.19C165.567 129.528 165.481 129.948 165.481 130.451V134H164.233V127.11H165.429V128.969L165.234 128.475C165.459 128.024 165.806 127.673 166.274 127.422C166.742 127.171 167.288 127.045 167.912 127.045ZM175.057 134.078C174.485 134.078 173.939 134 173.419 133.844C172.908 133.688 172.505 133.497 172.21 133.272L172.73 132.284C173.025 132.483 173.389 132.652 173.822 132.791C174.256 132.93 174.698 132.999 175.148 132.999C175.729 132.999 176.145 132.917 176.396 132.752C176.656 132.587 176.786 132.358 176.786 132.063C176.786 131.846 176.708 131.677 176.552 131.556C176.396 131.435 176.188 131.344 175.928 131.283C175.677 131.222 175.395 131.17 175.083 131.127C174.771 131.075 174.459 131.014 174.147 130.945C173.835 130.867 173.549 130.763 173.289 130.633C173.029 130.494 172.821 130.308 172.665 130.074C172.509 129.831 172.431 129.511 172.431 129.112C172.431 128.696 172.548 128.332 172.782 128.02C173.016 127.708 173.346 127.47 173.77 127.305C174.204 127.132 174.715 127.045 175.304 127.045C175.755 127.045 176.21 127.101 176.669 127.214C177.137 127.318 177.519 127.47 177.813 127.669L177.28 128.657C176.968 128.449 176.643 128.306 176.305 128.228C175.967 128.15 175.629 128.111 175.291 128.111C174.745 128.111 174.338 128.202 174.069 128.384C173.801 128.557 173.666 128.783 173.666 129.06C173.666 129.294 173.744 129.476 173.9 129.606C174.065 129.727 174.273 129.823 174.524 129.892C174.784 129.961 175.07 130.022 175.382 130.074C175.694 130.117 176.006 130.178 176.318 130.256C176.63 130.325 176.912 130.425 177.163 130.555C177.423 130.685 177.631 130.867 177.787 131.101C177.952 131.335 178.034 131.647 178.034 132.037C178.034 132.453 177.913 132.813 177.67 133.116C177.428 133.419 177.085 133.658 176.643 133.831C176.201 133.996 175.673 134.078 175.057 134.078ZM182.662 134.078C181.925 134.078 181.275 133.926 180.712 133.623C180.157 133.32 179.724 132.904 179.412 132.375C179.109 131.846 178.957 131.24 178.957 130.555C178.957 129.87 179.104 129.264 179.399 128.735C179.702 128.206 180.114 127.795 180.634 127.5C181.163 127.197 181.756 127.045 182.415 127.045C183.082 127.045 183.672 127.192 184.183 127.487C184.694 127.782 185.093 128.198 185.379 128.735C185.674 129.264 185.821 129.883 185.821 130.594C185.821 130.646 185.817 130.707 185.808 130.776C185.808 130.845 185.804 130.91 185.795 130.971H179.932V130.074H185.145L184.638 130.386C184.647 129.944 184.556 129.55 184.365 129.203C184.174 128.856 183.91 128.588 183.572 128.397C183.243 128.198 182.857 128.098 182.415 128.098C181.982 128.098 181.596 128.198 181.258 128.397C180.92 128.588 180.656 128.861 180.465 129.216C180.274 129.563 180.179 129.961 180.179 130.412V130.62C180.179 131.079 180.283 131.491 180.491 131.855C180.708 132.21 181.007 132.488 181.388 132.687C181.769 132.886 182.207 132.986 182.701 132.986C183.108 132.986 183.477 132.917 183.806 132.778C184.144 132.639 184.439 132.431 184.69 132.154L185.379 132.96C185.067 133.324 184.677 133.601 184.209 133.792C183.75 133.983 183.234 134.078 182.662 134.078ZM191.227 134V124.9H192.293L198.312 132.375H197.753V124.9H199.053V134H197.987L191.968 126.525H192.527V134H191.227ZM204.494 134.078C203.905 134.078 203.385 133.97 202.934 133.753C202.492 133.536 202.145 133.207 201.894 132.765C201.651 132.314 201.53 131.751 201.53 131.075V127.11H202.778V130.932C202.778 131.608 202.938 132.115 203.259 132.453C203.588 132.791 204.048 132.96 204.637 132.96C205.07 132.96 205.447 132.873 205.768 132.7C206.089 132.518 206.336 132.258 206.509 131.92C206.682 131.573 206.769 131.157 206.769 130.672V127.11H208.017V134H206.834V132.141L207.029 132.635C206.804 133.094 206.466 133.45 206.015 133.701C205.564 133.952 205.057 134.078 204.494 134.078ZM219.012 127.045C219.567 127.045 220.056 127.153 220.481 127.37C220.906 127.587 221.235 127.916 221.469 128.358C221.712 128.8 221.833 129.359 221.833 130.035V134H220.585V130.178C220.585 129.511 220.429 129.008 220.117 128.67C219.805 128.332 219.367 128.163 218.804 128.163C218.388 128.163 218.024 128.25 217.712 128.423C217.4 128.596 217.157 128.852 216.984 129.19C216.819 129.528 216.737 129.948 216.737 130.451V134H215.489V130.178C215.489 129.511 215.333 129.008 215.021 128.67C214.718 128.332 214.28 128.163 213.708 128.163C213.301 128.163 212.941 128.25 212.629 128.423C212.317 128.596 212.074 128.852 211.901 129.19C211.728 129.528 211.641 129.948 211.641 130.451V134H210.393V127.11H211.589V128.943L211.394 128.475C211.611 128.024 211.944 127.673 212.395 127.422C212.846 127.171 213.37 127.045 213.968 127.045C214.627 127.045 215.194 127.21 215.671 127.539C216.148 127.86 216.46 128.349 216.607 129.008L216.1 128.8C216.308 128.271 216.672 127.847 217.192 127.526C217.712 127.205 218.319 127.045 219.012 127.045ZM227.782 134.078C227.193 134.078 226.66 133.948 226.183 133.688C225.715 133.419 225.343 133.025 225.065 132.505C224.797 131.985 224.662 131.335 224.662 130.555C224.662 129.775 224.801 129.125 225.078 128.605C225.364 128.085 225.741 127.695 226.209 127.435C226.686 127.175 227.21 127.045 227.782 127.045C228.458 127.045 229.056 127.192 229.576 127.487C230.096 127.782 230.508 128.193 230.811 128.722C231.115 129.242 231.266 129.853 231.266 130.555C231.266 131.257 231.115 131.872 230.811 132.401C230.508 132.93 230.096 133.341 229.576 133.636C229.056 133.931 228.458 134.078 227.782 134.078ZM224.129 134V124.354H225.377V128.943L225.247 130.542L225.325 132.141V134H224.129ZM227.678 132.986C228.12 132.986 228.515 132.886 228.861 132.687C229.217 132.488 229.494 132.206 229.693 131.842C229.901 131.469 230.005 131.04 230.005 130.555C230.005 130.061 229.901 129.636 229.693 129.281C229.494 128.917 229.217 128.635 228.861 128.436C228.515 128.237 228.12 128.137 227.678 128.137C227.245 128.137 226.851 128.237 226.495 128.436C226.149 128.635 225.871 128.917 225.663 129.281C225.464 129.636 225.364 130.061 225.364 130.555C225.364 131.04 225.464 131.469 225.663 131.842C225.871 132.206 226.149 132.488 226.495 132.687C226.851 132.886 227.245 132.986 227.678 132.986ZM236.059 134.078C235.322 134.078 234.672 133.926 234.109 133.623C233.554 133.32 233.121 132.904 232.809 132.375C232.505 131.846 232.354 131.24 232.354 130.555C232.354 129.87 232.501 129.264 232.796 128.735C233.099 128.206 233.511 127.795 234.031 127.5C234.559 127.197 235.153 127.045 235.812 127.045C236.479 127.045 237.068 127.192 237.58 127.487C238.091 127.782 238.49 128.198 238.776 128.735C239.07 129.264 239.218 129.883 239.218 130.594C239.218 130.646 239.213 130.707 239.205 130.776C239.205 130.845 239.2 130.91 239.192 130.971H233.329V130.074H238.542L238.035 130.386C238.043 129.944 237.952 129.55 237.762 129.203C237.571 128.856 237.307 128.588 236.969 128.397C236.639 128.198 236.254 128.098 235.812 128.098C235.378 128.098 234.993 128.198 234.655 128.397C234.317 128.588 234.052 128.861 233.862 129.216C233.671 129.563 233.576 129.961 233.576 130.412V130.62C233.576 131.079 233.68 131.491 233.888 131.855C234.104 132.21 234.403 132.488 234.785 132.687C235.166 132.886 235.604 132.986 236.098 132.986C236.505 132.986 236.873 132.917 237.203 132.778C237.541 132.639 237.835 132.431 238.087 132.154L238.776 132.96C238.464 133.324 238.074 133.601 237.606 133.792C237.146 133.983 236.631 134.078 236.059 134.078ZM240.951 134V127.11H242.147V128.982L242.03 128.514C242.22 128.037 242.541 127.673 242.992 127.422C243.442 127.171 243.997 127.045 244.656 127.045V128.254C244.604 128.245 244.552 128.241 244.5 128.241C244.456 128.241 244.413 128.241 244.37 128.241C243.702 128.241 243.174 128.44 242.784 128.839C242.394 129.238 242.199 129.814 242.199 130.568V134H240.951Z" fill="black"/>
<path d="M73.434 47.104C72.7407 47.104 72.0993 46.9913 71.51 46.766C70.9293 46.532 70.4223 46.207 69.989 45.791C69.5643 45.3663 69.2307 44.8723 68.988 44.309C68.7453 43.7457 68.624 43.126 68.624 42.45C68.624 41.774 68.7453 41.1543 68.988 40.591C69.2307 40.0277 69.5687 39.538 70.002 39.122C70.4353 38.6973 70.9423 38.3723 71.523 38.147C72.1123 37.913 72.7537 37.796 73.447 37.796C74.149 37.796 74.7947 37.9173 75.384 38.16C75.982 38.394 76.489 38.745 76.905 39.213L76.06 40.032C75.7133 39.668 75.3233 39.3993 74.89 39.226C74.4567 39.044 73.993 38.953 73.499 38.953C72.9877 38.953 72.511 39.0397 72.069 39.213C71.6357 39.3863 71.2587 39.629 70.938 39.941C70.6173 40.253 70.366 40.6257 70.184 41.059C70.0107 41.4837 69.924 41.9473 69.924 42.45C69.924 42.9527 70.0107 43.4207 70.184 43.854C70.366 44.2787 70.6173 44.647 70.938 44.959C71.2587 45.271 71.6357 45.5137 72.069 45.687C72.511 45.8603 72.9877 45.947 73.499 45.947C73.993 45.947 74.4567 45.8603 74.89 45.687C75.3233 45.505 75.7133 45.2277 76.06 44.855L76.905 45.674C76.489 46.142 75.982 46.4973 75.384 46.74C74.7947 46.9827 74.1447 47.104 73.434 47.104ZM81.2607 47.078C80.6714 47.078 80.1514 46.9697 79.7007 46.753C79.2587 46.5363 78.912 46.207 78.6607 45.765C78.418 45.3143 78.2967 44.751 78.2967 44.075V40.11H79.5447V43.932C79.5447 44.608 79.705 45.115 80.0257 45.453C80.355 45.791 80.8144 45.96 81.4037 45.96C81.837 45.96 82.214 45.8733 82.5347 45.7C82.8554 45.518 83.1024 45.258 83.2757 44.92C83.449 44.5733 83.5357 44.1573 83.5357 43.672V40.11H84.7837V47H83.6007V45.141L83.7957 45.635C83.5704 46.0943 83.2324 46.4497 82.7817 46.701C82.331 46.9523 81.824 47.078 81.2607 47.078ZM89.1356 47.078C88.5636 47.078 88.0176 47 87.4976 46.844C86.9862 46.688 86.5832 46.4973 86.2886 46.272L86.8086 45.284C87.1032 45.4833 87.4672 45.6523 87.9006 45.791C88.3339 45.9297 88.7759 45.999 89.2266 45.999C89.8072 45.999 90.2232 45.9167 90.4746 45.752C90.7346 45.5873 90.8646 45.3577 90.8646 45.063C90.8646 44.8463 90.7866 44.6773 90.6306 44.556C90.4746 44.4347 90.2666 44.3437 90.0066 44.283C89.7552 44.2223 89.4736 44.1703 89.1616 44.127C88.8496 44.075 88.5376 44.0143 88.2256 43.945C87.9136 43.867 87.6276 43.763 87.3676 43.633C87.1076 43.4943 86.8996 43.308 86.7436 43.074C86.5876 42.8313 86.5096 42.5107 86.5096 42.112C86.5096 41.696 86.6266 41.332 86.8606 41.02C87.0946 40.708 87.4239 40.4697 87.8486 40.305C88.2819 40.1317 88.7932 40.045 89.3826 40.045C89.8332 40.045 90.2882 40.1013 90.7476 40.214C91.2156 40.318 91.5969 40.4697 91.8916 40.669L91.3586 41.657C91.0466 41.449 90.7216 41.306 90.3836 41.228C90.0456 41.15 89.7076 41.111 89.3696 41.111C88.8236 41.111 88.4162 41.202 88.1476 41.384C87.8789 41.5573 87.7446 41.7827 87.7446 42.06C87.7446 42.294 87.8226 42.476 87.9786 42.606C88.1432 42.7273 88.3512 42.8227 88.6026 42.892C88.8626 42.9613 89.1486 43.022 89.4606 43.074C89.7726 43.1173 90.0846 43.178 90.3966 43.256C90.7086 43.3253 90.9902 43.425 91.2416 43.555C91.5016 43.685 91.7096 43.867 91.8656 44.101C92.0302 44.335 92.1126 44.647 92.1126 45.037C92.1126 45.453 91.9912 45.8127 91.7486 46.116C91.5059 46.4193 91.1636 46.6577 90.7216 46.831C90.2796 46.9957 89.7509 47.078 89.1356 47.078ZM96.0383 47.078C95.3449 47.078 94.8076 46.8917 94.4263 46.519C94.0449 46.1463 93.8543 45.6133 93.8543 44.92V38.602H95.1023V44.868C95.1023 45.2407 95.1933 45.5267 95.3753 45.726C95.5659 45.9253 95.8346 46.025 96.1813 46.025C96.5713 46.025 96.8963 45.9167 97.1563 45.7L97.5463 46.597C97.3556 46.7617 97.1259 46.883 96.8573 46.961C96.5973 47.039 96.3243 47.078 96.0383 47.078ZM92.6843 41.137V40.11H97.0783V41.137H92.6843ZM101.778 47.078C101.084 47.078 100.469 46.9263 99.9316 46.623C99.3942 46.3197 98.9696 45.9037 98.6576 45.375C98.3456 44.8377 98.1896 44.231 98.1896 43.555C98.1896 42.8703 98.3456 42.2637 98.6576 41.735C98.9696 41.2063 99.3942 40.7947 99.9316 40.5C100.469 40.1967 101.084 40.045 101.778 40.045C102.462 40.045 103.073 40.1967 103.611 40.5C104.157 40.7947 104.581 41.2063 104.885 41.735C105.197 42.255 105.353 42.8617 105.353 43.555C105.353 44.2397 105.197 44.8463 104.885 45.375C104.581 45.9037 104.157 46.3197 103.611 46.623C103.073 46.9263 102.462 47.078 101.778 47.078ZM101.778 45.986C102.22 45.986 102.614 45.8863 102.961 45.687C103.316 45.4877 103.593 45.206 103.793 44.842C103.992 44.4693 104.092 44.0403 104.092 43.555C104.092 43.061 103.992 42.6363 103.793 42.281C103.593 41.917 103.316 41.6353 102.961 41.436C102.614 41.2367 102.22 41.137 101.778 41.137C101.336 41.137 100.941 41.2367 100.595 41.436C100.248 41.6353 99.9706 41.917 99.7626 42.281C99.5546 42.6363 99.4506 43.061 99.4506 43.555C99.4506 44.0403 99.5546 44.4693 99.7626 44.842C99.9706 45.206 100.248 45.4877 100.595 45.687C100.941 45.8863 101.336 45.986 101.778 45.986ZM115.698 40.045C116.252 40.045 116.742 40.1533 117.167 40.37C117.591 40.5867 117.921 40.916 118.155 41.358C118.397 41.8 118.519 42.359 118.519 43.035V47H117.271V43.178C117.271 42.5107 117.115 42.008 116.803 41.67C116.491 41.332 116.053 41.163 115.49 41.163C115.074 41.163 114.71 41.2497 114.398 41.423C114.086 41.5963 113.843 41.852 113.67 42.19C113.505 42.528 113.423 42.9483 113.423 43.451V47H112.175V43.178C112.175 42.5107 112.019 42.008 111.707 41.67C111.403 41.332 110.966 41.163 110.394 41.163C109.986 41.163 109.627 41.2497 109.315 41.423C109.003 41.5963 108.76 41.852 108.587 42.19C108.413 42.528 108.327 42.9483 108.327 43.451V47H107.079V40.11H108.275V41.943L108.08 41.475C108.296 41.0243 108.63 40.6733 109.081 40.422C109.531 40.1707 110.056 40.045 110.654 40.045C111.312 40.045 111.88 40.2097 112.357 40.539C112.833 40.8597 113.145 41.3493 113.293 42.008L112.786 41.8C112.994 41.2713 113.358 40.8467 113.878 40.526C114.398 40.2053 115.004 40.045 115.698 40.045ZM123.883 47.078C123.146 47.078 122.496 46.9263 121.933 46.623C121.378 46.3197 120.945 45.9037 120.633 45.375C120.33 44.8463 120.178 44.2397 120.178 43.555C120.178 42.8703 120.325 42.2637 120.62 41.735C120.923 41.2063 121.335 40.7947 121.855 40.5C122.384 40.1967 122.977 40.045 123.636 40.045C124.303 40.045 124.893 40.1923 125.404 40.487C125.915 40.7817 126.314 41.1977 126.6 41.735C126.895 42.2637 127.042 42.8833 127.042 43.594C127.042 43.646 127.038 43.7067 127.029 43.776C127.029 43.8453 127.025 43.9103 127.016 43.971H121.153V43.074H126.366L125.859 43.386C125.868 42.944 125.777 42.5497 125.586 42.203C125.395 41.8563 125.131 41.5877 124.793 41.397C124.464 41.1977 124.078 41.098 123.636 41.098C123.203 41.098 122.817 41.1977 122.479 41.397C122.141 41.5877 121.877 41.8607 121.686 42.216C121.495 42.5627 121.4 42.9613 121.4 43.412V43.62C121.4 44.0793 121.504 44.491 121.712 44.855C121.929 45.2103 122.228 45.4877 122.609 45.687C122.99 45.8863 123.428 45.986 123.922 45.986C124.329 45.986 124.698 45.9167 125.027 45.778C125.365 45.6393 125.66 45.4313 125.911 45.154L126.6 45.96C126.288 46.324 125.898 46.6013 125.43 46.792C124.971 46.9827 124.455 47.078 123.883 47.078ZM128.775 47V40.11H129.971V41.982L129.854 41.514C130.044 41.0373 130.365 40.6733 130.816 40.422C131.266 40.1707 131.821 40.045 132.48 40.045V41.254C132.428 41.2453 132.376 41.241 132.324 41.241C132.28 41.241 132.237 41.241 132.194 41.241C131.526 41.241 130.998 41.4403 130.608 41.839C130.218 42.2377 130.023 42.814 130.023 43.568V47H128.775ZM137.78 47V37.9H138.846L144.865 45.375H144.306V37.9H145.606V47H144.54L138.521 39.525H139.08V47H137.78ZM152.425 47V45.544L152.36 45.271V42.788C152.36 42.2593 152.204 41.852 151.892 41.566C151.589 41.2713 151.129 41.124 150.514 41.124C150.107 41.124 149.708 41.1933 149.318 41.332C148.928 41.462 148.599 41.6397 148.33 41.865L147.81 40.929C148.165 40.643 148.59 40.4263 149.084 40.279C149.587 40.123 150.111 40.045 150.657 40.045C151.602 40.045 152.33 40.2747 152.841 40.734C153.352 41.1933 153.608 41.8953 153.608 42.84V47H152.425ZM150.163 47.078C149.652 47.078 149.201 46.9913 148.811 46.818C148.43 46.6447 148.135 46.4063 147.927 46.103C147.719 45.791 147.615 45.44 147.615 45.05C147.615 44.6773 147.702 44.3393 147.875 44.036C148.057 43.7327 148.347 43.49 148.746 43.308C149.153 43.126 149.699 43.035 150.384 43.035H152.568V43.932H150.436C149.812 43.932 149.392 44.036 149.175 44.244C148.958 44.452 148.85 44.7033 148.85 44.998C148.85 45.336 148.984 45.609 149.253 45.817C149.522 46.0163 149.894 46.116 150.371 46.116C150.839 46.116 151.246 46.012 151.593 45.804C151.948 45.596 152.204 45.2927 152.36 44.894L152.607 45.752C152.442 46.1593 152.152 46.4843 151.736 46.727C151.32 46.961 150.796 47.078 150.163 47.078ZM164.536 40.045C165.091 40.045 165.581 40.1533 166.005 40.37C166.43 40.5867 166.759 40.916 166.993 41.358C167.236 41.8 167.357 42.359 167.357 43.035V47H166.109V43.178C166.109 42.5107 165.953 42.008 165.641 41.67C165.329 41.332 164.892 41.163 164.328 41.163C163.912 41.163 163.548 41.2497 163.236 41.423C162.924 41.5963 162.682 41.852 162.508 42.19C162.344 42.528 162.261 42.9483 162.261 43.451V47H161.013V43.178C161.013 42.5107 160.857 42.008 160.545 41.67C160.242 41.332 159.804 41.163 159.232 41.163C158.825 41.163 158.465 41.2497 158.153 41.423C157.841 41.5963 157.599 41.852 157.425 42.19C157.252 42.528 157.165 42.9483 157.165 43.451V47H155.917V40.11H157.113V41.943L156.918 41.475C157.135 41.0243 157.469 40.6733 157.919 40.422C158.37 40.1707 158.894 40.045 159.492 40.045C160.151 40.045 160.719 40.2097 161.195 40.539C161.672 40.8597 161.984 41.3493 162.131 42.008L161.624 41.8C161.832 41.2713 162.196 40.8467 162.716 40.526C163.236 40.2053 163.843 40.045 164.536 40.045ZM172.722 47.078C171.985 47.078 171.335 46.9263 170.772 46.623C170.217 46.3197 169.784 45.9037 169.472 45.375C169.168 44.8463 169.017 44.2397 169.017 43.555C169.017 42.8703 169.164 42.2637 169.459 41.735C169.762 41.2063 170.174 40.7947 170.694 40.5C171.222 40.1967 171.816 40.045 172.475 40.045C173.142 40.045 173.731 40.1923 174.243 40.487C174.754 40.7817 175.153 41.1977 175.439 41.735C175.733 42.2637 175.881 42.8833 175.881 43.594C175.881 43.646 175.876 43.7067 175.868 43.776C175.868 43.8453 175.863 43.9103 175.855 43.971H169.992V43.074H175.205L174.698 43.386C174.706 42.944 174.615 42.5497 174.425 42.203C174.234 41.8563 173.97 41.5877 173.632 41.397C173.302 41.1977 172.917 41.098 172.475 41.098C172.041 41.098 171.656 41.1977 171.318 41.397C170.98 41.5877 170.715 41.8607 170.525 42.216C170.334 42.5627 170.239 42.9613 170.239 43.412V43.62C170.239 44.0793 170.343 44.491 170.551 44.855C170.767 45.2103 171.066 45.4877 171.448 45.687C171.829 45.8863 172.267 45.986 172.761 45.986C173.168 45.986 173.536 45.9167 173.866 45.778C174.204 45.6393 174.498 45.4313 174.75 45.154L175.439 45.96C175.127 46.324 174.737 46.6013 174.269 46.792C173.809 46.9827 173.294 47.078 172.722 47.078Z" fill="black"/>
<rect x="228" y="334" width="125" height="37" fill="#FD1290"/>
<path d="M272.017 357.104C271.324 357.104 270.661 357 270.028 356.792C269.395 356.575 268.897 356.298 268.533 355.96L269.014 354.946C269.361 355.249 269.803 355.501 270.34 355.7C270.877 355.899 271.436 355.999 272.017 355.999C272.546 355.999 272.975 355.938 273.304 355.817C273.633 355.696 273.876 355.531 274.032 355.323C274.188 355.106 274.266 354.864 274.266 354.595C274.266 354.283 274.162 354.032 273.954 353.841C273.755 353.65 273.49 353.499 273.161 353.386C272.84 353.265 272.485 353.161 272.095 353.074C271.705 352.987 271.311 352.888 270.912 352.775C270.522 352.654 270.162 352.502 269.833 352.32C269.512 352.138 269.252 351.895 269.053 351.592C268.854 351.28 268.754 350.881 268.754 350.396C268.754 349.928 268.875 349.499 269.118 349.109C269.369 348.71 269.751 348.394 270.262 348.16C270.782 347.917 271.441 347.796 272.238 347.796C272.767 347.796 273.291 347.865 273.811 348.004C274.331 348.143 274.782 348.342 275.163 348.602L274.734 349.642C274.344 349.382 273.932 349.196 273.499 349.083C273.066 348.962 272.645 348.901 272.238 348.901C271.727 348.901 271.306 348.966 270.977 349.096C270.648 349.226 270.405 349.399 270.249 349.616C270.102 349.833 270.028 350.075 270.028 350.344C270.028 350.665 270.128 350.92 270.327 351.111C270.535 351.302 270.799 351.453 271.12 351.566C271.449 351.679 271.809 351.783 272.199 351.878C272.589 351.965 272.979 352.064 273.369 352.177C273.768 352.29 274.127 352.437 274.448 352.619C274.777 352.801 275.042 353.044 275.241 353.347C275.44 353.65 275.54 354.04 275.54 354.517C275.54 354.976 275.414 355.405 275.163 355.804C274.912 356.194 274.522 356.51 273.993 356.753C273.473 356.987 272.814 357.104 272.017 357.104ZM280.325 357.078C279.589 357.078 278.939 356.926 278.375 356.623C277.821 356.32 277.387 355.904 277.075 355.375C276.772 354.846 276.62 354.24 276.62 353.555C276.62 352.87 276.768 352.264 277.062 351.735C277.366 351.206 277.777 350.795 278.297 350.5C278.826 350.197 279.42 350.045 280.078 350.045C280.746 350.045 281.335 350.192 281.846 350.487C282.358 350.782 282.756 351.198 283.042 351.735C283.337 352.264 283.484 352.883 283.484 353.594C283.484 353.646 283.48 353.707 283.471 353.776C283.471 353.845 283.467 353.91 283.458 353.971H277.595V353.074H282.808L282.301 353.386C282.31 352.944 282.219 352.55 282.028 352.203C281.838 351.856 281.573 351.588 281.235 351.397C280.906 351.198 280.52 351.098 280.078 351.098C279.645 351.098 279.259 351.198 278.921 351.397C278.583 351.588 278.319 351.861 278.128 352.216C277.938 352.563 277.842 352.961 277.842 353.412V353.62C277.842 354.079 277.946 354.491 278.154 354.855C278.371 355.21 278.67 355.488 279.051 355.687C279.433 355.886 279.87 355.986 280.364 355.986C280.772 355.986 281.14 355.917 281.469 355.778C281.807 355.639 282.102 355.431 282.353 355.154L283.042 355.96C282.73 356.324 282.34 356.601 281.872 356.792C281.413 356.983 280.897 357.078 280.325 357.078ZM289.304 357V355.544L289.239 355.271V352.788C289.239 352.259 289.083 351.852 288.771 351.566C288.467 351.271 288.008 351.124 287.393 351.124C286.985 351.124 286.587 351.193 286.197 351.332C285.807 351.462 285.477 351.64 285.209 351.865L284.689 350.929C285.044 350.643 285.469 350.426 285.963 350.279C286.465 350.123 286.99 350.045 287.536 350.045C288.48 350.045 289.208 350.275 289.72 350.734C290.231 351.193 290.487 351.895 290.487 352.84V357H289.304ZM287.042 357.078C286.53 357.078 286.08 356.991 285.69 356.818C285.308 356.645 285.014 356.406 284.806 356.103C284.598 355.791 284.494 355.44 284.494 355.05C284.494 354.677 284.58 354.339 284.754 354.036C284.936 353.733 285.226 353.49 285.625 353.308C286.032 353.126 286.578 353.035 287.263 353.035H289.447V353.932H287.315C286.691 353.932 286.27 354.036 286.054 354.244C285.837 354.452 285.729 354.703 285.729 354.998C285.729 355.336 285.863 355.609 286.132 355.817C286.4 356.016 286.773 356.116 287.25 356.116C287.718 356.116 288.125 356.012 288.472 355.804C288.827 355.596 289.083 355.293 289.239 354.894L289.486 355.752C289.321 356.159 289.031 356.484 288.615 356.727C288.199 356.961 287.674 357.078 287.042 357.078ZM292.796 357V350.11H293.992V351.982L293.875 351.514C294.066 351.037 294.387 350.673 294.837 350.422C295.288 350.171 295.843 350.045 296.501 350.045V351.254C296.449 351.245 296.397 351.241 296.345 351.241C296.302 351.241 296.259 351.241 296.215 351.241C295.548 351.241 295.019 351.44 294.629 351.839C294.239 352.238 294.044 352.814 294.044 353.568V357H292.796ZM300.979 357.078C300.277 357.078 299.649 356.926 299.094 356.623C298.548 356.32 298.119 355.904 297.807 355.375C297.495 354.846 297.339 354.24 297.339 353.555C297.339 352.87 297.495 352.264 297.807 351.735C298.119 351.206 298.548 350.795 299.094 350.5C299.649 350.197 300.277 350.045 300.979 350.045C301.603 350.045 302.158 350.171 302.643 350.422C303.137 350.665 303.518 351.029 303.787 351.514L302.838 352.125C302.613 351.787 302.335 351.54 302.006 351.384C301.685 351.219 301.339 351.137 300.966 351.137C300.515 351.137 300.112 351.237 299.757 351.436C299.402 351.635 299.12 351.917 298.912 352.281C298.704 352.636 298.6 353.061 298.6 353.555C298.6 354.049 298.704 354.478 298.912 354.842C299.12 355.206 299.402 355.488 299.757 355.687C300.112 355.886 300.515 355.986 300.966 355.986C301.339 355.986 301.685 355.908 302.006 355.752C302.335 355.587 302.613 355.336 302.838 354.998L303.787 355.596C303.518 356.073 303.137 356.441 302.643 356.701C302.158 356.952 301.603 357.078 300.979 357.078ZM308.993 350.045C309.556 350.045 310.05 350.153 310.475 350.37C310.908 350.587 311.246 350.916 311.489 351.358C311.732 351.8 311.853 352.359 311.853 353.035V357H310.605V353.178C310.605 352.511 310.44 352.008 310.111 351.67C309.79 351.332 309.335 351.163 308.746 351.163C308.304 351.163 307.918 351.25 307.589 351.423C307.26 351.596 307.004 351.852 306.822 352.19C306.649 352.528 306.562 352.948 306.562 353.451V357H305.314V347.354H306.562V351.969L306.315 351.475C306.54 351.024 306.887 350.673 307.355 350.422C307.823 350.171 308.369 350.045 308.993 350.045Z" fill="white"/>
<g filter="url(#filter1_d_1363_10)">
<rect x="140" y="226" width="302" height="74" rx="2" fill="#FAFAFA"/>
<rect x="139.5" y="225.5" width="303" height="75" rx="2.5" stroke="#D6D6D6"/>
<g clip-path="url(#clip0_1363_10)">
<path d="M419.307 250.212C419.306 249.987 419.301 249.764 419.291 249.541V236.851L415.783 240.359C412.911 236.845 408.543 234.6 403.651 234.6C398.559 234.6 394.036 237.03 391.177 240.794L396.927 246.605C397.491 245.563 398.291 244.668 399.257 243.991C400.261 243.208 401.683 242.567 403.651 242.567C403.888 242.567 404.072 242.595 404.207 242.647C406.645 242.84 408.758 244.185 410.002 246.138L405.932 250.209C411.088 250.188 416.912 250.177 419.307 250.211" fill="#1C3AA9"/>
<path d="M403.559 234.601C403.334 234.601 403.11 234.606 402.887 234.617H390.197L393.706 238.125C390.191 240.996 387.946 245.364 387.946 250.257C387.946 255.348 390.377 259.871 394.14 262.731L399.951 256.98C398.909 256.417 398.014 255.616 397.338 254.651C396.554 253.647 395.914 252.225 395.914 250.257C395.914 250.019 395.941 249.836 395.994 249.701C396.186 247.263 397.532 245.15 399.485 243.905L403.555 247.976C403.535 242.82 403.523 236.996 403.558 234.601" fill="#4285F4"/>
<path d="M387.947 250.256C387.948 250.481 387.953 250.705 387.963 250.927V263.617L391.472 260.109C394.343 263.624 398.711 265.869 403.603 265.869C408.695 265.869 413.218 263.438 416.078 259.675L410.327 253.864C409.764 254.906 408.963 255.801 407.998 256.477C406.994 257.261 405.571 257.901 403.604 257.901C403.366 257.901 403.182 257.873 403.048 257.821C400.61 257.629 398.496 256.283 397.252 254.33L401.322 250.26C396.167 250.28 390.342 250.292 387.948 250.257" fill="#ABABAB"/>
<path d="M390.589 271.932C390.208 271.932 389.866 272.004 389.563 272.149C389.261 272.29 389.004 272.492 388.794 272.755C388.587 273.018 388.427 273.337 388.316 273.712C388.207 274.083 388.153 274.499 388.153 274.959V276.286C388.153 276.75 388.207 277.167 388.316 277.539C388.427 277.91 388.585 278.227 388.789 278.49C388.993 278.753 389.239 278.955 389.529 279.097C389.818 279.238 390.144 279.309 390.505 279.309C390.877 279.309 391.202 279.255 391.482 279.146C391.764 279.038 392.001 278.882 392.192 278.678C392.382 278.471 392.529 278.221 392.631 277.928C392.736 277.636 392.798 277.304 392.818 276.932H391.906C391.883 277.218 391.843 277.463 391.787 277.667C391.731 277.867 391.649 278.033 391.541 278.165C391.436 278.293 391.297 278.388 391.127 278.451C390.959 278.51 390.752 278.54 390.505 278.54C390.242 278.54 390.019 278.482 389.835 278.367C389.65 278.249 389.501 278.088 389.386 277.884C389.274 277.68 389.192 277.442 389.139 277.169C389.09 276.896 389.065 276.602 389.065 276.286V274.95C389.065 274.611 389.095 274.304 389.154 274.027C389.216 273.751 389.31 273.516 389.435 273.322C389.56 273.128 389.718 272.979 389.909 272.873C390.099 272.765 390.326 272.711 390.589 272.711C390.809 272.711 390.998 272.744 391.156 272.809C391.314 272.872 391.445 272.97 391.551 273.105C391.656 273.237 391.736 273.404 391.792 273.608C391.848 273.812 391.886 274.055 391.906 274.338H392.818C392.802 273.95 392.741 273.607 392.636 273.307C392.53 273.008 392.384 272.757 392.197 272.553C392.009 272.349 391.781 272.195 391.511 272.089C391.245 271.984 390.938 271.932 390.589 271.932L390.589 271.932ZM412.859 271.932C412.478 271.932 412.136 272.004 411.833 272.149C411.531 272.29 411.275 272.492 411.064 272.755C410.857 273.018 410.698 273.337 410.586 273.712C410.477 274.083 410.423 274.499 410.423 274.959V276.286C410.423 276.75 410.477 277.167 410.586 277.539C410.698 277.91 410.855 278.227 411.059 278.49C411.263 278.753 411.51 278.955 411.799 279.097C412.088 279.238 412.414 279.309 412.775 279.309C413.147 279.309 413.472 279.255 413.752 279.146C414.034 279.038 414.271 278.882 414.462 278.678C414.652 278.471 414.799 278.221 414.901 277.928C415.006 277.636 415.068 277.304 415.088 276.932H414.176C414.153 277.218 414.113 277.463 414.057 277.667C414.002 277.867 413.919 278.033 413.811 278.165C413.706 278.293 413.568 278.388 413.397 278.451C413.229 278.51 413.022 278.54 412.775 278.54C412.512 278.54 412.289 278.482 412.105 278.367C411.921 278.249 411.771 278.088 411.656 277.884C411.544 277.68 411.462 277.442 411.409 277.169C411.36 276.896 411.335 276.602 411.335 276.286V274.95C411.335 274.611 411.365 274.304 411.424 274.027C411.487 273.751 411.58 273.516 411.705 273.322C411.83 273.128 411.988 272.979 412.179 272.873C412.369 272.765 412.596 272.711 412.859 272.711C413.079 272.711 413.268 272.744 413.426 272.809C413.584 272.872 413.716 272.97 413.821 273.105C413.926 273.237 414.006 273.404 414.062 273.608C414.118 273.812 414.156 274.055 414.176 274.338H415.088C415.072 273.95 415.011 273.607 414.906 273.307C414.8 273.008 414.654 272.757 414.467 272.553C414.279 272.349 414.051 272.195 413.781 272.089C413.515 271.984 413.208 271.932 412.859 271.932L412.859 271.932ZM395.787 272.03L393.474 279.21H394.401L394.958 277.336H397.385L397.952 279.21H398.879L396.561 272.03H395.787ZM399.855 272.03V279.21H400.758V276.399H402.143C402.488 276.399 402.794 276.352 403.061 276.256C403.327 276.158 403.55 276.016 403.731 275.832C403.915 275.648 404.053 275.421 404.145 275.152C404.241 274.879 404.288 274.57 404.288 274.225C404.288 273.906 404.241 273.613 404.145 273.347C404.053 273.077 403.917 272.846 403.736 272.652C403.555 272.454 403.33 272.301 403.061 272.193C402.794 272.084 402.489 272.03 402.143 272.03L399.855 272.03ZM404.979 272.03V272.809H406.863V279.21H407.765V272.809H409.654V272.03H404.979ZM416.306 272.03V279.21H417.209V275.891H420.098V279.21H421.006V272.03H420.098V275.117H417.209V272.03H416.306ZM424.428 272.03L422.115 279.21H423.042L423.6 277.336H426.026L426.593 279.21H427.52L425.202 272.03H424.428ZM400.758 272.809H402.143C402.363 272.809 402.551 272.849 402.705 272.928C402.863 273.007 402.991 273.112 403.09 273.243C403.192 273.375 403.266 273.528 403.312 273.702C403.361 273.873 403.386 274.05 403.386 274.235C403.386 274.438 403.361 274.626 403.312 274.797C403.266 274.964 403.192 275.111 403.09 275.236C402.991 275.357 402.863 275.453 402.705 275.522C402.551 275.591 402.363 275.625 402.143 275.625H400.758V272.809ZM396.171 273.293L397.153 276.557H395.195L396.171 273.293ZM424.813 273.293L425.794 276.557H423.836L424.813 273.293ZM382.335 273.776C382.108 273.776 381.912 273.834 381.748 273.949C381.587 274.064 381.452 274.22 381.343 274.417L381.329 273.875H380.48V279.21H381.353V275.393C381.436 275.166 381.552 274.987 381.703 274.856C381.858 274.724 382.054 274.659 382.29 274.659C382.366 274.659 382.433 274.662 382.492 274.668C382.552 274.672 382.616 274.68 382.685 274.693L382.68 273.845C382.667 273.838 382.645 273.832 382.616 273.825C382.589 273.815 382.56 273.807 382.527 273.8C382.494 273.794 382.46 273.789 382.423 273.786C382.391 273.779 382.361 273.776 382.335 273.776L382.335 273.776ZM385.269 273.776C385.016 273.776 384.771 273.82 384.534 273.909C384.297 273.998 384.087 274.144 383.903 274.348C383.722 274.549 383.576 274.812 383.464 275.137C383.352 275.459 383.296 275.855 383.296 276.326V276.927C383.296 277.335 383.344 277.688 383.439 277.987C383.535 278.287 383.671 278.535 383.849 278.732C384.029 278.926 384.248 279.071 384.504 279.166C384.761 279.261 385.049 279.309 385.367 279.309C385.598 279.309 385.803 279.286 385.984 279.24C386.168 279.194 386.331 279.135 386.472 279.062C386.613 278.987 386.735 278.901 386.837 278.806C386.939 278.711 387.026 278.612 387.098 278.51L386.645 277.958C386.572 278.047 386.495 278.129 386.413 278.204C386.331 278.277 386.24 278.341 386.142 278.397C386.043 278.449 385.935 278.49 385.816 278.52C385.698 278.55 385.565 278.564 385.417 278.564C385.012 278.564 384.702 278.434 384.485 278.175C384.271 277.915 384.164 277.499 384.164 276.927V276.804H387.143V276.296C387.143 275.888 387.108 275.528 387.039 275.216C386.97 274.904 386.86 274.641 386.709 274.427C386.558 274.213 386.364 274.052 386.127 273.944C385.89 273.832 385.604 273.776 385.269 273.776L385.269 273.776ZM385.269 274.526C385.459 274.526 385.617 274.56 385.742 274.629C385.867 274.698 385.966 274.795 386.038 274.92C386.114 275.045 386.168 275.195 386.201 275.369C386.237 275.54 386.26 275.729 386.27 275.936V276.054H384.169C384.182 275.755 384.218 275.507 384.278 275.31C384.337 275.112 384.414 274.956 384.509 274.841C384.608 274.723 384.721 274.641 384.85 274.595C384.978 274.549 385.118 274.526 385.269 274.526L385.269 274.526Z" fill="#A6A6A6"/>
</g>
<path d="M378.98 288.879H377.5V288.102H378.98C379.238 288.102 379.447 288.06 379.605 287.977C379.764 287.893 379.88 287.779 379.953 287.633C380.029 287.484 380.066 287.315 380.066 287.125C380.066 286.945 380.029 286.777 379.953 286.621C379.88 286.462 379.764 286.335 379.605 286.238C379.447 286.142 379.238 286.094 378.98 286.094H377.801V291H376.82V285.312H378.98C379.421 285.312 379.794 285.391 380.102 285.547C380.411 285.701 380.647 285.914 380.809 286.188C380.97 286.458 381.051 286.768 381.051 287.117C381.051 287.484 380.97 287.799 380.809 288.062C380.647 288.326 380.411 288.527 380.102 288.668C379.794 288.809 379.421 288.879 378.98 288.879ZM382.781 287.578V291H381.84V286.773H382.738L382.781 287.578ZM384.074 286.746L384.066 287.621C384.009 287.611 383.947 287.603 383.879 287.598C383.814 287.592 383.749 287.59 383.684 287.59C383.522 287.59 383.38 287.613 383.258 287.66C383.135 287.704 383.033 287.77 382.949 287.855C382.868 287.939 382.806 288.04 382.762 288.16C382.717 288.28 382.691 288.414 382.684 288.562L382.469 288.578C382.469 288.312 382.495 288.066 382.547 287.84C382.599 287.613 382.677 287.414 382.781 287.242C382.888 287.07 383.021 286.936 383.18 286.84C383.341 286.743 383.527 286.695 383.738 286.695C383.796 286.695 383.857 286.701 383.922 286.711C383.99 286.721 384.04 286.733 384.074 286.746ZM385.672 286.773V291H384.727V286.773H385.672ZM384.664 285.664C384.664 285.521 384.711 285.402 384.805 285.309C384.901 285.212 385.034 285.164 385.203 285.164C385.37 285.164 385.501 285.212 385.598 285.309C385.694 285.402 385.742 285.521 385.742 285.664C385.742 285.805 385.694 285.922 385.598 286.016C385.501 286.109 385.37 286.156 385.203 286.156C385.034 286.156 384.901 286.109 384.805 286.016C384.711 285.922 384.664 285.805 384.664 285.664ZM388.078 290.254L389.113 286.773H390.09L388.621 291H388.012L388.078 290.254ZM387.285 286.773L388.34 290.27L388.391 291H387.781L386.305 286.773H387.285ZM392.992 290.152V288.137C392.992 287.986 392.965 287.855 392.91 287.746C392.855 287.637 392.772 287.552 392.66 287.492C392.551 287.432 392.413 287.402 392.246 287.402C392.092 287.402 391.96 287.428 391.848 287.48C391.736 287.533 391.648 287.603 391.586 287.691C391.523 287.78 391.492 287.88 391.492 287.992H390.555C390.555 287.826 390.595 287.664 390.676 287.508C390.757 287.352 390.874 287.212 391.027 287.09C391.181 286.967 391.365 286.871 391.578 286.801C391.792 286.73 392.031 286.695 392.297 286.695C392.615 286.695 392.896 286.749 393.141 286.855C393.388 286.962 393.582 287.124 393.723 287.34C393.866 287.553 393.938 287.822 393.938 288.145V290.023C393.938 290.216 393.951 290.389 393.977 290.543C394.005 290.694 394.046 290.826 394.098 290.938V291H393.133C393.089 290.898 393.053 290.77 393.027 290.613C393.004 290.454 392.992 290.301 392.992 290.152ZM393.129 288.43L393.137 289.012H392.461C392.286 289.012 392.133 289.029 392 289.062C391.867 289.094 391.757 289.141 391.668 289.203C391.579 289.266 391.513 289.341 391.469 289.43C391.424 289.518 391.402 289.618 391.402 289.73C391.402 289.842 391.428 289.945 391.48 290.039C391.533 290.13 391.608 290.202 391.707 290.254C391.809 290.306 391.931 290.332 392.074 290.332C392.267 290.332 392.435 290.293 392.578 290.215C392.724 290.134 392.839 290.036 392.922 289.922C393.005 289.805 393.049 289.694 393.055 289.59L393.359 290.008C393.328 290.115 393.275 290.229 393.199 290.352C393.124 290.474 393.025 290.591 392.902 290.703C392.783 290.812 392.638 290.902 392.469 290.973C392.302 291.043 392.109 291.078 391.891 291.078C391.615 291.078 391.368 291.023 391.152 290.914C390.936 290.802 390.767 290.652 390.645 290.465C390.522 290.275 390.461 290.06 390.461 289.82C390.461 289.596 390.503 289.398 390.586 289.227C390.672 289.052 390.797 288.906 390.961 288.789C391.128 288.672 391.331 288.583 391.57 288.523C391.81 288.461 392.083 288.43 392.391 288.43H393.129ZM396.648 290.328C396.802 290.328 396.94 290.298 397.062 290.238C397.188 290.176 397.288 290.09 397.363 289.98C397.441 289.871 397.484 289.745 397.492 289.602H398.379C398.374 289.875 398.293 290.124 398.137 290.348C397.98 290.572 397.773 290.75 397.516 290.883C397.258 291.013 396.973 291.078 396.66 291.078C396.337 291.078 396.056 291.023 395.816 290.914C395.577 290.802 395.378 290.648 395.219 290.453C395.06 290.258 394.94 290.033 394.859 289.777C394.781 289.522 394.742 289.249 394.742 288.957V288.82C394.742 288.529 394.781 288.255 394.859 288C394.94 287.742 395.06 287.516 395.219 287.32C395.378 287.125 395.577 286.973 395.816 286.863C396.056 286.751 396.336 286.695 396.656 286.695C396.995 286.695 397.292 286.763 397.547 286.898C397.802 287.031 398.003 287.217 398.148 287.457C398.297 287.694 398.374 287.97 398.379 288.285H397.492C397.484 288.129 397.445 287.988 397.375 287.863C397.307 287.736 397.211 287.634 397.086 287.559C396.964 287.483 396.816 287.445 396.645 287.445C396.454 287.445 396.297 287.484 396.172 287.562C396.047 287.638 395.949 287.742 395.879 287.875C395.809 288.005 395.758 288.152 395.727 288.316C395.698 288.478 395.684 288.646 395.684 288.82V288.957C395.684 289.132 395.698 289.301 395.727 289.465C395.755 289.629 395.805 289.776 395.875 289.906C395.948 290.034 396.047 290.137 396.172 290.215C396.297 290.29 396.456 290.328 396.648 290.328ZM400.328 290.539L401.477 286.773H402.484L400.789 291.645C400.75 291.749 400.699 291.862 400.637 291.984C400.574 292.107 400.492 292.223 400.391 292.332C400.292 292.444 400.168 292.534 400.02 292.602C399.871 292.672 399.691 292.707 399.48 292.707C399.397 292.707 399.316 292.699 399.238 292.684C399.163 292.671 399.091 292.656 399.023 292.641L399.02 291.922C399.046 291.924 399.077 291.927 399.113 291.93C399.152 291.932 399.184 291.934 399.207 291.934C399.363 291.934 399.493 291.914 399.598 291.875C399.702 291.839 399.786 291.779 399.852 291.695C399.919 291.612 399.977 291.5 400.023 291.359L400.328 290.539ZM399.68 286.773L400.684 289.938L400.852 290.93L400.199 291.098L398.664 286.773H399.68ZM406.91 288.195V288.945H404.844V288.195H406.91ZM411.973 285.312V291H411V285.312H411.973ZM413.758 285.312V286.094H409.23V285.312H413.758ZM415.902 291.078C415.59 291.078 415.307 291.027 415.055 290.926C414.805 290.822 414.591 290.677 414.414 290.492C414.24 290.307 414.105 290.09 414.012 289.84C413.918 289.59 413.871 289.32 413.871 289.031V288.875C413.871 288.544 413.919 288.245 414.016 287.977C414.112 287.708 414.246 287.479 414.418 287.289C414.59 287.096 414.793 286.949 415.027 286.848C415.262 286.746 415.516 286.695 415.789 286.695C416.091 286.695 416.355 286.746 416.582 286.848C416.809 286.949 416.996 287.092 417.145 287.277C417.296 287.46 417.408 287.677 417.48 287.93C417.556 288.182 417.594 288.461 417.594 288.766V289.168H414.328V288.492H416.664V288.418C416.659 288.249 416.625 288.09 416.562 287.941C416.503 287.793 416.41 287.673 416.285 287.582C416.16 287.491 415.993 287.445 415.785 287.445C415.629 287.445 415.49 287.479 415.367 287.547C415.247 287.612 415.147 287.707 415.066 287.832C414.986 287.957 414.923 288.108 414.879 288.285C414.837 288.46 414.816 288.656 414.816 288.875V289.031C414.816 289.216 414.841 289.388 414.891 289.547C414.943 289.703 415.018 289.84 415.117 289.957C415.216 290.074 415.336 290.167 415.477 290.234C415.617 290.299 415.777 290.332 415.957 290.332C416.184 290.332 416.385 290.286 416.562 290.195C416.74 290.104 416.893 289.975 417.023 289.809L417.52 290.289C417.428 290.422 417.31 290.549 417.164 290.672C417.018 290.792 416.84 290.889 416.629 290.965C416.421 291.04 416.178 291.078 415.902 291.078ZM419.273 287.578V291H418.332V286.773H419.23L419.273 287.578ZM420.566 286.746L420.559 287.621C420.501 287.611 420.439 287.603 420.371 287.598C420.306 287.592 420.241 287.59 420.176 287.59C420.014 287.59 419.872 287.613 419.75 287.66C419.628 287.704 419.525 287.77 419.441 287.855C419.361 287.939 419.298 288.04 419.254 288.16C419.21 288.28 419.184 288.414 419.176 288.562L418.961 288.578C418.961 288.312 418.987 288.066 419.039 287.84C419.091 287.613 419.169 287.414 419.273 287.242C419.38 287.07 419.513 286.936 419.672 286.84C419.833 286.743 420.02 286.695 420.23 286.695C420.288 286.695 420.349 286.701 420.414 286.711C420.482 286.721 420.533 286.733 420.566 286.746ZM422.098 287.633V291H421.156V286.773H422.043L422.098 287.633ZM421.945 288.73L421.625 288.727C421.625 288.435 421.661 288.165 421.734 287.918C421.807 287.671 421.914 287.456 422.055 287.273C422.195 287.089 422.37 286.947 422.578 286.848C422.789 286.746 423.033 286.695 423.309 286.695C423.501 286.695 423.677 286.724 423.836 286.781C423.997 286.836 424.137 286.923 424.254 287.043C424.374 287.163 424.465 287.316 424.527 287.504C424.592 287.691 424.625 287.918 424.625 288.184V291H423.684V288.266C423.684 288.06 423.652 287.898 423.59 287.781C423.53 287.664 423.443 287.581 423.328 287.531C423.216 287.479 423.082 287.453 422.926 287.453C422.749 287.453 422.598 287.487 422.473 287.555C422.35 287.622 422.25 287.715 422.172 287.832C422.094 287.949 422.036 288.085 422 288.238C421.964 288.392 421.945 288.556 421.945 288.73ZM424.566 288.48L424.125 288.578C424.125 288.323 424.16 288.082 424.23 287.855C424.303 287.626 424.409 287.426 424.547 287.254C424.688 287.079 424.861 286.943 425.066 286.844C425.272 286.745 425.508 286.695 425.773 286.695C425.99 286.695 426.182 286.725 426.352 286.785C426.523 286.842 426.669 286.934 426.789 287.059C426.909 287.184 427 287.346 427.062 287.547C427.125 287.745 427.156 287.984 427.156 288.266V291H426.211V288.262C426.211 288.048 426.18 287.883 426.117 287.766C426.057 287.648 425.971 287.568 425.859 287.523C425.747 287.477 425.613 287.453 425.457 287.453C425.311 287.453 425.182 287.48 425.07 287.535C424.961 287.587 424.868 287.661 424.793 287.758C424.717 287.852 424.66 287.96 424.621 288.082C424.585 288.204 424.566 288.337 424.566 288.48ZM430.496 289.855C430.496 289.762 430.473 289.677 430.426 289.602C430.379 289.523 430.289 289.453 430.156 289.391C430.026 289.328 429.833 289.271 429.578 289.219C429.354 289.169 429.148 289.111 428.961 289.043C428.776 288.973 428.617 288.888 428.484 288.789C428.352 288.69 428.249 288.573 428.176 288.438C428.103 288.302 428.066 288.146 428.066 287.969C428.066 287.797 428.104 287.634 428.18 287.48C428.255 287.327 428.363 287.191 428.504 287.074C428.645 286.957 428.815 286.865 429.016 286.797C429.219 286.729 429.445 286.695 429.695 286.695C430.049 286.695 430.353 286.755 430.605 286.875C430.861 286.992 431.056 287.152 431.191 287.355C431.327 287.556 431.395 287.783 431.395 288.035H430.453C430.453 287.923 430.424 287.819 430.367 287.723C430.312 287.624 430.229 287.544 430.117 287.484C430.005 287.422 429.865 287.391 429.695 287.391C429.534 287.391 429.4 287.417 429.293 287.469C429.189 287.518 429.111 287.583 429.059 287.664C429.009 287.745 428.984 287.833 428.984 287.93C428.984 288 428.997 288.064 429.023 288.121C429.052 288.176 429.099 288.227 429.164 288.273C429.229 288.318 429.318 288.359 429.43 288.398C429.544 288.438 429.688 288.475 429.859 288.512C430.182 288.579 430.46 288.667 430.691 288.773C430.926 288.878 431.105 289.013 431.23 289.18C431.355 289.344 431.418 289.552 431.418 289.805C431.418 289.992 431.378 290.164 431.297 290.32C431.219 290.474 431.104 290.608 430.953 290.723C430.802 290.835 430.621 290.922 430.41 290.984C430.202 291.047 429.967 291.078 429.707 291.078C429.324 291.078 429 291.01 428.734 290.875C428.469 290.737 428.267 290.561 428.129 290.348C427.993 290.132 427.926 289.908 427.926 289.676H428.836C428.846 289.85 428.895 289.99 428.98 290.094C429.069 290.195 429.178 290.27 429.309 290.316C429.441 290.361 429.578 290.383 429.719 290.383C429.888 290.383 430.03 290.361 430.145 290.316C430.259 290.27 430.346 290.207 430.406 290.129C430.466 290.048 430.496 289.957 430.496 289.855Z" fill="#A6A6A6"/>
<path d="M152 263.5L159.5 272L176.5 255" stroke="#00A860" stroke-width="4"/>
<path d="M192.844 258.047V268H191.128V258.047H192.844ZM196.378 257.5V258.464C196.378 258.751 196.326 259.049 196.221 259.359C196.12 259.665 195.979 259.959 195.797 260.241C195.615 260.519 195.405 260.761 195.168 260.966L194.341 260.446C194.528 260.164 194.678 259.865 194.792 259.551C194.91 259.232 194.97 258.874 194.97 258.478V257.5H196.378ZM199.345 262.107V268H197.697V260.604H199.249L199.345 262.107ZM199.078 264.028L198.518 264.021C198.518 263.511 198.581 263.039 198.709 262.606C198.837 262.174 199.023 261.798 199.27 261.479C199.516 261.155 199.821 260.907 200.186 260.733C200.555 260.556 200.981 260.467 201.464 260.467C201.801 260.467 202.109 260.517 202.387 260.617C202.669 260.713 202.913 260.866 203.118 261.075C203.328 261.285 203.487 261.554 203.597 261.882C203.711 262.21 203.768 262.606 203.768 263.071V268H202.12V263.215C202.12 262.855 202.065 262.572 201.956 262.367C201.851 262.162 201.699 262.016 201.498 261.93C201.302 261.839 201.067 261.793 200.794 261.793C200.484 261.793 200.22 261.852 200.001 261.971C199.787 262.089 199.611 262.251 199.475 262.456C199.338 262.661 199.238 262.898 199.174 263.167C199.11 263.436 199.078 263.723 199.078 264.028ZM203.665 263.591L202.893 263.762C202.893 263.315 202.954 262.894 203.077 262.497C203.205 262.096 203.389 261.745 203.631 261.444C203.877 261.139 204.18 260.9 204.54 260.727C204.9 260.553 205.312 260.467 205.777 260.467C206.156 260.467 206.493 260.519 206.789 260.624C207.09 260.724 207.345 260.884 207.555 261.103C207.764 261.321 207.924 261.606 208.033 261.957C208.143 262.303 208.197 262.723 208.197 263.215V268H206.543V263.208C206.543 262.834 206.488 262.545 206.379 262.34C206.274 262.135 206.124 261.993 205.928 261.916C205.732 261.834 205.497 261.793 205.224 261.793C204.968 261.793 204.743 261.841 204.547 261.937C204.355 262.028 204.194 262.158 204.062 262.326C203.929 262.49 203.829 262.679 203.761 262.894C203.697 263.108 203.665 263.34 203.665 263.591ZM215.013 262.183V268H213.365V260.604H214.917L215.013 262.183ZM214.719 264.028L214.186 264.021C214.19 263.497 214.263 263.017 214.404 262.579C214.55 262.142 214.751 261.766 215.006 261.451C215.266 261.137 215.576 260.895 215.936 260.727C216.296 260.553 216.697 260.467 217.139 260.467C217.494 260.467 217.815 260.517 218.103 260.617C218.394 260.713 218.643 260.87 218.848 261.089C219.057 261.308 219.217 261.592 219.326 261.943C219.436 262.29 219.49 262.716 219.49 263.222V268H217.836V263.215C217.836 262.859 217.784 262.579 217.679 262.374C217.578 262.164 217.43 262.016 217.234 261.93C217.043 261.839 216.804 261.793 216.517 261.793C216.234 261.793 215.981 261.852 215.758 261.971C215.535 262.089 215.345 262.251 215.19 262.456C215.04 262.661 214.924 262.898 214.842 263.167C214.76 263.436 214.719 263.723 214.719 264.028ZM220.857 264.384V264.227C220.857 263.693 220.935 263.199 221.09 262.743C221.245 262.283 221.468 261.884 221.76 261.547C222.056 261.205 222.416 260.941 222.84 260.754C223.268 260.562 223.751 260.467 224.289 260.467C224.831 260.467 225.314 260.562 225.738 260.754C226.167 260.941 226.529 261.205 226.825 261.547C227.121 261.884 227.347 262.283 227.502 262.743C227.657 263.199 227.734 263.693 227.734 264.227V264.384C227.734 264.917 227.657 265.411 227.502 265.867C227.347 266.323 227.121 266.722 226.825 267.063C226.529 267.401 226.169 267.665 225.745 267.856C225.321 268.043 224.84 268.137 224.303 268.137C223.76 268.137 223.275 268.043 222.847 267.856C222.423 267.665 222.063 267.401 221.767 267.063C221.47 266.722 221.245 266.323 221.09 265.867C220.935 265.411 220.857 264.917 220.857 264.384ZM222.505 264.227V264.384C222.505 264.716 222.539 265.031 222.607 265.327C222.676 265.623 222.783 265.883 222.929 266.106C223.075 266.33 223.261 266.505 223.489 266.633C223.717 266.76 223.988 266.824 224.303 266.824C224.608 266.824 224.872 266.76 225.096 266.633C225.324 266.505 225.51 266.33 225.656 266.106C225.802 265.883 225.909 265.623 225.978 265.327C226.05 265.031 226.087 264.716 226.087 264.384V264.227C226.087 263.898 226.05 263.589 225.978 263.297C225.909 263.001 225.8 262.739 225.649 262.511C225.504 262.283 225.317 262.105 225.089 261.978C224.866 261.845 224.599 261.779 224.289 261.779C223.979 261.779 223.71 261.845 223.482 261.978C223.259 262.105 223.075 262.283 222.929 262.511C222.783 262.739 222.676 263.001 222.607 263.297C222.539 263.589 222.505 263.898 222.505 264.227ZM232.506 260.604V261.807H228.336V260.604H232.506ZM229.539 258.792H231.187V265.956C231.187 266.184 231.218 266.359 231.282 266.482C231.351 266.601 231.444 266.681 231.562 266.722C231.681 266.763 231.82 266.783 231.979 266.783C232.093 266.783 232.203 266.776 232.308 266.763C232.412 266.749 232.497 266.735 232.561 266.722L232.567 267.979C232.431 268.021 232.271 268.057 232.089 268.089C231.911 268.121 231.706 268.137 231.474 268.137C231.095 268.137 230.76 268.071 230.469 267.938C230.177 267.802 229.949 267.581 229.785 267.275C229.621 266.97 229.539 266.564 229.539 266.059V258.792ZM241.434 266.517V262.989C241.434 262.725 241.386 262.497 241.29 262.306C241.194 262.114 241.049 261.966 240.853 261.861C240.661 261.757 240.42 261.704 240.128 261.704C239.859 261.704 239.627 261.75 239.431 261.841C239.235 261.932 239.082 262.055 238.973 262.21C238.863 262.365 238.809 262.54 238.809 262.736H237.168C237.168 262.445 237.239 262.162 237.38 261.889C237.521 261.615 237.726 261.371 237.995 261.157C238.264 260.943 238.585 260.774 238.959 260.651C239.333 260.528 239.752 260.467 240.217 260.467C240.773 260.467 241.265 260.56 241.693 260.747C242.126 260.934 242.466 261.216 242.712 261.595C242.963 261.968 243.088 262.438 243.088 263.003V266.291C243.088 266.628 243.111 266.931 243.156 267.2C243.206 267.465 243.277 267.695 243.368 267.891V268H241.68C241.602 267.822 241.541 267.597 241.495 267.323C241.454 267.045 241.434 266.776 241.434 266.517ZM241.673 263.502L241.687 264.521H240.504C240.199 264.521 239.93 264.55 239.697 264.609C239.465 264.664 239.271 264.746 239.116 264.855C238.961 264.965 238.845 265.097 238.768 265.252C238.69 265.407 238.651 265.582 238.651 265.778C238.651 265.974 238.697 266.154 238.788 266.318C238.879 266.478 239.011 266.603 239.185 266.694C239.362 266.785 239.576 266.831 239.827 266.831C240.164 266.831 240.458 266.763 240.709 266.626C240.964 266.485 241.165 266.314 241.311 266.113C241.456 265.908 241.534 265.715 241.543 265.532L242.076 266.264C242.021 266.451 241.928 266.651 241.796 266.865C241.664 267.079 241.491 267.285 241.276 267.48C241.067 267.672 240.814 267.829 240.518 267.952C240.226 268.075 239.889 268.137 239.506 268.137C239.023 268.137 238.592 268.041 238.214 267.85C237.836 267.654 237.539 267.392 237.325 267.063C237.111 266.731 237.004 266.355 237.004 265.936C237.004 265.544 237.077 265.197 237.223 264.896C237.373 264.591 237.592 264.336 237.879 264.131C238.171 263.926 238.526 263.771 238.945 263.666C239.365 263.557 239.843 263.502 240.381 263.502H241.673ZM249.951 262.012V268H248.304V260.604H249.876L249.951 262.012ZM252.214 260.556L252.2 262.087C252.1 262.069 251.991 262.055 251.872 262.046C251.758 262.037 251.644 262.032 251.53 262.032C251.248 262.032 250.999 262.073 250.785 262.155C250.571 262.233 250.391 262.347 250.245 262.497C250.104 262.643 249.994 262.821 249.917 263.03C249.84 263.24 249.794 263.475 249.78 263.734L249.404 263.762C249.404 263.297 249.45 262.866 249.541 262.47C249.632 262.073 249.769 261.725 249.951 261.424C250.138 261.123 250.37 260.888 250.648 260.72C250.931 260.551 251.257 260.467 251.626 260.467C251.726 260.467 251.833 260.476 251.947 260.494C252.066 260.512 252.155 260.533 252.214 260.556ZM252.754 264.384V264.227C252.754 263.693 252.831 263.199 252.986 262.743C253.141 262.283 253.365 261.884 253.656 261.547C253.952 261.205 254.312 260.941 254.736 260.754C255.165 260.562 255.648 260.467 256.186 260.467C256.728 260.467 257.211 260.562 257.635 260.754C258.063 260.941 258.425 261.205 258.722 261.547C259.018 261.884 259.243 262.283 259.398 262.743C259.553 263.199 259.631 263.693 259.631 264.227V264.384C259.631 264.917 259.553 265.411 259.398 265.867C259.243 266.323 259.018 266.722 258.722 267.063C258.425 267.401 258.065 267.665 257.642 267.856C257.218 268.043 256.737 268.137 256.199 268.137C255.657 268.137 255.172 268.043 254.743 267.856C254.319 267.665 253.959 267.401 253.663 267.063C253.367 266.722 253.141 266.323 252.986 265.867C252.831 265.411 252.754 264.917 252.754 264.384ZM254.401 264.227V264.384C254.401 264.716 254.436 265.031 254.504 265.327C254.572 265.623 254.679 265.883 254.825 266.106C254.971 266.33 255.158 266.505 255.386 266.633C255.614 266.76 255.885 266.824 256.199 266.824C256.505 266.824 256.769 266.76 256.992 266.633C257.22 266.505 257.407 266.33 257.553 266.106C257.699 265.883 257.806 265.623 257.874 265.327C257.947 265.031 257.983 264.716 257.983 264.384V264.227C257.983 263.898 257.947 263.589 257.874 263.297C257.806 263.001 257.696 262.739 257.546 262.511C257.4 262.283 257.213 262.105 256.985 261.978C256.762 261.845 256.495 261.779 256.186 261.779C255.876 261.779 255.607 261.845 255.379 261.978C255.156 262.105 254.971 262.283 254.825 262.511C254.679 262.739 254.572 263.001 254.504 263.297C254.436 263.589 254.401 263.898 254.401 264.227ZM261.019 257.5H262.666V266.421L262.509 268H261.019V257.5ZM267.492 264.233V264.377C267.492 264.924 267.431 265.427 267.308 265.888C267.189 266.343 267.007 266.74 266.761 267.077C266.519 267.414 266.218 267.676 265.858 267.863C265.503 268.046 265.09 268.137 264.621 268.137C264.161 268.137 263.76 268.05 263.418 267.877C263.076 267.704 262.789 267.458 262.557 267.139C262.329 266.82 262.144 266.439 262.003 265.997C261.862 265.555 261.761 265.067 261.702 264.534V264.076C261.761 263.538 261.862 263.051 262.003 262.613C262.144 262.171 262.329 261.791 262.557 261.472C262.789 261.148 263.074 260.9 263.411 260.727C263.753 260.553 264.152 260.467 264.607 260.467C265.081 260.467 265.498 260.558 265.858 260.74C266.223 260.923 266.526 261.182 266.768 261.52C267.009 261.852 267.189 262.249 267.308 262.709C267.431 263.169 267.492 263.677 267.492 264.233ZM265.845 264.377V264.233C265.845 263.901 265.817 263.589 265.763 263.297C265.708 263.001 265.617 262.741 265.489 262.518C265.366 262.294 265.198 262.119 264.983 261.991C264.774 261.859 264.512 261.793 264.197 261.793C263.906 261.793 263.655 261.843 263.445 261.943C263.236 262.044 263.06 262.18 262.919 262.354C262.778 262.527 262.666 262.727 262.584 262.955C262.507 263.183 262.454 263.429 262.427 263.693V264.931C262.468 265.272 262.554 265.587 262.687 265.874C262.823 266.157 263.015 266.384 263.261 266.558C263.507 266.726 263.824 266.811 264.211 266.811C264.516 266.811 264.774 266.749 264.983 266.626C265.193 266.503 265.359 266.332 265.482 266.113C265.61 265.89 265.701 265.63 265.756 265.334C265.815 265.038 265.845 264.719 265.845 264.377ZM268.572 264.384V264.227C268.572 263.693 268.65 263.199 268.805 262.743C268.96 262.283 269.183 261.884 269.475 261.547C269.771 261.205 270.131 260.941 270.555 260.754C270.983 260.562 271.466 260.467 272.004 260.467C272.546 260.467 273.029 260.562 273.453 260.754C273.882 260.941 274.244 261.205 274.54 261.547C274.836 261.884 275.062 262.283 275.217 262.743C275.372 263.199 275.449 263.693 275.449 264.227V264.384C275.449 264.917 275.372 265.411 275.217 265.867C275.062 266.323 274.836 266.722 274.54 267.063C274.244 267.401 273.884 267.665 273.46 267.856C273.036 268.043 272.555 268.137 272.018 268.137C271.475 268.137 270.99 268.043 270.562 267.856C270.138 267.665 269.778 267.401 269.481 267.063C269.185 266.722 268.96 266.323 268.805 265.867C268.65 265.411 268.572 264.917 268.572 264.384ZM270.22 264.227V264.384C270.22 264.716 270.254 265.031 270.322 265.327C270.391 265.623 270.498 265.883 270.644 266.106C270.789 266.33 270.976 266.505 271.204 266.633C271.432 266.76 271.703 266.824 272.018 266.824C272.323 266.824 272.587 266.76 272.811 266.633C273.038 266.505 273.225 266.33 273.371 266.106C273.517 265.883 273.624 265.623 273.692 265.327C273.765 265.031 273.802 264.716 273.802 264.384V264.227C273.802 263.898 273.765 263.589 273.692 263.297C273.624 263.001 273.515 262.739 273.364 262.511C273.218 262.283 273.032 262.105 272.804 261.978C272.58 261.845 272.314 261.779 272.004 261.779C271.694 261.779 271.425 261.845 271.197 261.978C270.974 262.105 270.789 262.283 270.644 262.511C270.498 262.739 270.391 263.001 270.322 263.297C270.254 263.589 270.22 263.898 270.22 264.227ZM280.221 260.604V261.807H276.051V260.604H280.221ZM277.254 258.792H278.901V265.956C278.901 266.184 278.933 266.359 278.997 266.482C279.065 266.601 279.159 266.681 279.277 266.722C279.396 266.763 279.535 266.783 279.694 266.783C279.808 266.783 279.918 266.776 280.022 266.763C280.127 266.749 280.212 266.735 280.275 266.722L280.282 267.979C280.146 268.021 279.986 268.057 279.804 268.089C279.626 268.121 279.421 268.137 279.188 268.137C278.81 268.137 278.475 268.071 278.184 267.938C277.892 267.802 277.664 267.581 277.5 267.275C277.336 266.97 277.254 266.564 277.254 266.059V258.792Z" fill="black"/>
</g>
<defs>
<filter id="filter0_d_1363_10" x="63" y="67.9561" width="447" height="45.0879" filterUnits="userSpaceOnUse" color-interpolation-filters="sRGB">
<feFlood flood-opacity="0" result="BackgroundImageFix"/>
<feColorMatrix in="SourceAlpha" type="matrix" values="0 0 0 0 0 0 0 0 0 0 0 0 0 0 0 0 0 0 127 0" result="hardAlpha"/>
<feOffset dy="4"/>
<feGaussianBlur stdDeviation="2"/>
<feComposite in2="hardAlpha" operator="out"/>
<feColorMatrix type="matrix" values="0 0 0 0 0 0 0 0 0 0 0 0 0 0 0 0 0 0 0.05 0"/>
<feBlend mode="normal" in2="BackgroundImageFix" result="effect1_dropShadow_1363_10"/>
<feBlend mode="normal" in="SourceGraphic" in2="effect1_dropShadow_1363_10" result="shape"/>
</filter>
<filter id="filter1_d_1363_10" x="137" y="224" width="308" height="80" filterUnits="userSpaceOnUse" color-interpolation-filters="sRGB">
<feFlood flood-opacity="0" result="BackgroundImageFix"/>
<feColorMatrix in="SourceAlpha" type="matrix" values="0 0 0 0 0 0 0 0 0 0 0 0 0 0 0 0 0 0 127 0" result="hardAlpha"/>
<feOffset dy="1"/>
<feGaussianBlur stdDeviation="1"/>
<feColorMatrix type="matrix" values="0 0 0 0 0 0 0 0 0 0 0 0 0 0 0 0 0 0 0.1 0"/>
<feBlend mode="normal" in2="BackgroundImageFix" result="effect1_dropShadow_1363_10"/>
<feBlend mode="normal" in="SourceGraphic" in2="effect1_dropShadow_1363_10" result="shape"/>
</filter>
<clipPath id="clip0_1363_10">
<rect width="48" height="46" fill="white" transform="translate(380 234)"/>
</clipPath>
</defs>
</svg>
